<svg width="211" height="282" viewBox="0 0 211 282" fill="none" xmlns="http://www.w3.org/2000/svg">
<path d="M189.339 151.09L196.666 140.248L200.05 134.232L203.058 128.592C220.461 92.5995 214.648 23.8737 130.224 3.92262C132.054 5.18743 134.207 6.85212 136.504 8.64809C150.157 19.3227 168.465 38.7281 174.079 56.2517C183.129 78.2081 188.26 138.413 119.853 221.202H124.779C124.779 221.202 148.373 208.266 189.339 151.09Z" fill="#3E3C80"/>
<path d="M148.633 91.3266C149.427 69.5746 142.047 19.0622 115.704 1.138C113.506 0.806813 111.26 0.506217 108.963 0.237324C112.593 11.8004 119.077 39.4801 119.853 56.1413C121.495 91.4128 121.746 173.805 109.611 221.202H114.408C145.529 160.176 147.409 124.832 148.633 91.3266Z" fill="#3E3C80"/>
<path d="M94.7025 1.13822C68.3599 19.0624 60.2159 68.7861 61.7743 91.3268C63.9347 122.576 66.5668 165.816 95.9989 221.202H100.796C88.6614 173.805 88.912 91.413 90.5541 56.1415C91.3298 39.4801 97.8139 11.8007 101.444 0.237543C99.1473 0.506436 96.9005 0.807031 94.7025 1.13822Z" fill="#3E3C80"/>
<path d="M8.62245 130.91L14.3015 141L20.8084 151.09C63.1225 211.733 85.6278 221.202 85.6278 221.202H90.5541C22.1464 138.413 28.9856 77.0801 36.3651 56.1415C42.5022 38.7281 60.2873 19.2123 73.9397 8.5377C76.2366 6.74182 78.3534 5.1876 80.183 3.92284C-4.24116 23.8739 -9.76295 97.0081 8.62245 130.91Z" fill="#3E3C80"/>
<path d="M90.589 1.80328C86.9848 2.42651 83.5176 3.1348 80.183 3.92284C78.3534 5.1876 76.2366 6.74182 73.9397 8.5377C76.6906 6.77817 83.3186 3.37421 90.589 1.80328Z" fill="black"/>
<path d="M130.224 3.92262C126.631 3.07348 122.884 2.31695 118.977 1.65966C126.265 3.15749 133.496 6.83313 136.504 8.64809C134.207 6.85212 132.054 5.18743 130.224 3.92262Z" fill="black"/>
<path d="M85.6278 221.202V233.361V234.396V249.661V258.457V276.308C85.6278 278.895 93.3925 282 95.2211 282L105.319 282L115.186 282C117.246 282 124.765 278.895 124.779 276.308V258.457V249.66V234.396V233.361V221.202H119.853H114.408H109.611L105.592 221.202H100.796H95.9989H90.5541H85.6278Z" fill="#3E3C80"/>
<path d="M100.796 221.202H105.592L109.611 221.202C121.746 173.805 121.495 91.4128 119.853 56.1413C119.077 39.4801 112.593 11.8004 108.963 0.237324C107.43 0.0577727 106.592 -3.37983e-05 105.296 1.48236e-08C103.999 3.38279e-05 102.977 0.0579914 101.444 0.237543C97.8139 11.8007 91.3298 39.4801 90.5541 56.1415C88.912 91.413 88.6614 173.805 100.796 221.202Z" fill="#CAD6FF"/>
<path d="M119.853 221.202C188.26 138.413 183.129 78.2081 174.079 56.2517C168.465 38.7281 150.157 19.3227 136.504 8.64809C133.496 6.83313 126.265 3.15749 118.977 1.65966C117.898 1.47816 116.808 1.30423 115.704 1.138C142.047 19.0622 149.427 69.5746 148.633 91.3266C147.409 124.832 145.529 160.176 114.408 221.202H119.853Z" fill="#CAD6FF"/>
<path d="M36.3651 56.1415C28.9856 77.0801 22.1464 138.413 90.5541 221.202H95.9989C66.5668 165.816 63.9347 122.576 61.7743 91.3268C60.2159 68.7861 68.3599 19.0624 94.7025 1.13822C93.3119 1.34776 91.9408 1.56954 90.589 1.80328C83.3186 3.37421 76.6906 6.77817 73.9397 8.5377C60.2873 19.2123 42.5022 38.7281 36.3651 56.1415Z" fill="#CAD6FF"/>
<path d="M69.6945 45.0647C74.7352 27.8938 83.068 11.6836 95.4558 3.04784C96.5073 2.89193 97.5703 2.74302 98.6448 2.60127C94.9089 15.5036 89.2827 40.4453 88.5562 56.0485C86.9425 90.7105 86.6517 171.148 98.2379 219.202H97.2035C68.8923 165.448 65.9865 123.326 63.8566 92.4504C63.8274 92.0277 63.7984 91.6072 63.7695 91.1888C63.0083 80.1788 64.6202 62.3504 69.6945 45.0647ZM124.793 218.851C124.568 218.995 124.381 219.111 124.234 219.202H124.071C189.937 137.772 185.22 78.1373 175.959 55.5644C173.03 46.4763 166.883 37.0435 159.842 28.6006C153.362 20.8305 146.033 13.7899 139.521 8.49597C174.918 19.2619 194.193 39.4046 202.973 60.9952C212.566 84.5837 209.739 110.154 201.274 127.686L198.296 133.271L194.963 139.196L187.697 149.947C167.285 178.434 151.234 195.854 140.325 206.131C134.87 211.271 130.701 214.623 127.918 216.678C126.526 217.706 125.48 218.41 124.793 218.851ZM120.795 223.202H122.779V233.361V234.396V249.66V258.457V276.19C122.748 276.243 122.629 276.445 122.238 276.792C121.672 277.293 120.827 277.836 119.835 278.345C118.858 278.848 117.819 279.277 116.92 279.577C115.95 279.9 115.356 280 115.186 280L105.319 280L95.2214 280C95.2216 280 95.0754 279.992 94.7364 279.913C94.4264 279.841 94.0365 279.729 93.5886 279.579C92.6921 279.277 91.6392 278.845 90.6428 278.34C89.6314 277.828 88.7627 277.282 88.1785 276.777C87.7896 276.44 87.6635 276.241 87.6278 276.183V258.457V249.661V234.396V233.361V223.202H89.6122H90.5541H94.7969H94.8011H95.9989H99.2431H99.3266H100.796H103.372H105.592L107.035 223.202H109.611H111.143H114.408H115.606H115.633H119.853H120.795ZM86.0755 219.202C85.9364 219.133 85.7542 219.039 85.5293 218.917C84.886 218.569 83.8927 217.994 82.5546 217.107C79.878 215.335 75.8231 212.321 70.433 207.409C59.6542 197.586 43.5516 180.186 22.4695 149.976L16.0149 139.967L10.3733 129.943C1.46804 113.511 -1.70889 87.3713 7.71547 62.9038C16.3168 40.5728 35.4709 19.5048 70.6915 8.57783C64.2504 13.8614 57.1306 20.854 50.7913 28.54C43.7961 37.0211 37.6563 46.4608 34.4788 55.4767C26.9365 76.8772 20.3926 137.594 86.3369 219.202H86.0755ZM91.4974 219.202C24.1161 137.25 31.1561 76.9383 38.2513 56.8063C41.2109 48.4089 47.0323 39.3839 53.8771 31.0851C60.6824 22.8341 68.4056 15.4139 75.0958 10.1726C77.2365 8.81629 81.7996 6.43589 87.1268 4.78425C77.0048 14.6489 70.1733 29.2329 65.8565 43.938C60.6628 61.6303 58.9818 79.9341 59.779 91.4647C59.8085 91.8906 59.838 92.3187 59.8677 92.7491C61.9824 123.406 64.892 165.587 92.6902 219.202H91.4974ZM112.169 219.202C123.755 171.148 123.464 90.7103 121.851 56.0483C121.124 40.4453 115.498 15.5034 111.762 2.60105C112.837 2.7428 113.899 2.89169 114.951 3.0476C127.321 11.6772 135.47 28.0628 140.422 45.3477C145.404 62.7352 147.023 80.5908 146.634 91.2536C145.424 124.383 143.593 159.192 113.181 219.202H112.169ZM117.855 56.2343C119.48 91.1352 119.721 171.899 108.052 219.202L105.592 219.202H102.355C90.6858 171.899 90.9271 91.1354 92.5519 56.2345C93.2897 40.3866 99.3064 14.2201 102.966 2.09226C103.781 2.02403 104.477 2.00002 105.296 2C106.092 1.99998 106.694 2.02239 107.44 2.08796C111.099 14.214 117.117 40.3848 117.855 56.2343ZM117.661 219.202C147.547 159.605 149.42 124.545 150.631 91.3996C151.036 80.3103 149.363 62.0338 144.268 44.246C140.05 29.5234 133.4 14.828 123.375 4.90682C128.505 6.57746 133.102 8.94313 135.369 10.299C142.067 15.5479 149.912 22.9385 156.77 31.1625C163.68 39.4478 169.479 48.4501 172.174 56.8619L172.199 56.939L172.23 57.0139C180.9 78.0485 186.351 137.196 118.91 219.202H117.661Z" stroke="#3E3C80" stroke-width="4"/>
</svg>
