<svg width="165" height="35" viewBox="0 0 165 35" fill="none" xmlns="http://www.w3.org/2000/svg">
<mask id="path-1-outside-1_343_4069" maskUnits="userSpaceOnUse" x="0" y="0" width="165" height="35" fill="black">
<rect fill="white" width="165" height="35"/>
<path d="M26.7054 1.672L16.8494 31.24C16.3214 32.5893 15.3828 33.264 14.0334 33.264C12.6254 33.264 11.6574 32.5893 11.1294 31.24L1.40544 1.672H7.74144L14.0334 22.088L20.3254 1.672H26.7054ZM53.4598 15.884V18.26C53.4598 23.5107 52.4625 27.324 50.4678 29.7C48.5025 32.076 45.3345 33.264 40.9638 33.264C36.5932 33.264 33.4252 32.076 31.4598 29.7C29.5238 27.324 28.5558 23.4667 28.5558 18.128V15.84C28.5558 10.9707 29.5385 7.348 31.5038 4.972C33.4985 2.596 36.6372 1.408 40.9198 1.408C45.2318 1.408 48.3998 2.61066 50.4238 5.016C52.4478 7.42133 53.4598 11.044 53.4598 15.884ZM47.3438 18.128V16.5C47.3438 13.684 46.9918 11.44 46.2878 9.768C45.4665 7.832 43.7065 6.864 41.0078 6.864C38.2798 6.864 36.5052 7.832 35.6838 9.768C35.0092 11.352 34.6718 13.596 34.6718 16.5V18.128C34.6718 21.912 35.1998 24.464 36.2558 25.784C36.6665 26.3413 37.2678 26.8253 38.0598 27.236C38.8812 27.6173 39.8492 27.808 40.9638 27.808C42.1078 27.808 43.0758 27.6173 43.8678 27.236C44.6598 26.8547 45.2758 26.3853 45.7158 25.828C46.1558 25.2707 46.4932 24.5373 46.7278 23.628C47.1385 22.1907 47.3438 20.3573 47.3438 18.128ZM80.1923 1.672L70.7763 20.152V33H64.7043V20.152L55.2883 1.672H61.9323L67.7843 14.3L73.5483 1.672H80.1923ZM107.748 33H101.368L99.6079 27.588H89.0919L87.3759 33H80.9959L91.0279 4.312C91.4679 3.31467 91.9519 2.62533 92.4799 2.244C93.0373 1.86267 93.7119 1.672 94.5039 1.672C95.2959 1.672 95.9266 1.848 96.3959 2.2C96.8946 2.552 97.3346 3.256 97.7159 4.312L107.748 33ZM98.1999 22.44L94.5039 10.032L90.6319 22.44H98.1999ZM110.111 18.26V14.388C110.111 10.3107 111.181 7.128 113.323 4.84C115.464 2.552 118.427 1.408 122.211 1.408C125.995 1.408 129.031 2.552 131.319 4.84C132.932 6.45333 133.739 8.87333 133.739 12.1H128.019C128.019 8.60933 126.156 6.864 122.431 6.864C121.316 6.864 120.363 7.084 119.571 7.524C118.808 7.93467 118.236 8.41867 117.855 8.976C117.473 9.53333 117.18 10.3547 116.975 11.44C116.769 12.5253 116.652 13.4347 116.623 14.168C116.593 14.9013 116.579 15.884 116.579 17.116C116.579 18.348 116.579 19.184 116.579 19.624C116.608 20.0347 116.652 20.724 116.711 21.692C116.799 22.6307 116.916 23.3053 117.063 23.716C117.239 24.1267 117.473 24.6547 117.767 25.3C118.089 25.9453 118.485 26.4 118.955 26.664C120.157 27.4267 121.521 27.808 123.047 27.808C125.599 27.808 127.403 26.7227 128.459 24.552V22.44H124.675V17.336H133.695V26.796C132.785 28.9373 131.348 30.5507 129.383 31.636C127.417 32.7213 125.188 33.264 122.695 33.264C118.265 33.264 115.053 32.032 113.059 29.568C111.093 27.0747 110.111 23.3053 110.111 18.26ZM163.03 15.884V18.26C163.03 23.5107 162.033 27.324 160.038 29.7C158.073 32.076 154.905 33.264 150.534 33.264C146.163 33.264 142.995 32.076 141.03 29.7C139.094 27.324 138.126 23.4667 138.126 18.128V15.84C138.126 10.9707 139.109 7.348 141.074 4.972C143.069 2.596 146.207 1.408 150.49 1.408C154.802 1.408 157.97 2.61066 159.994 5.016C162.018 7.42133 163.03 11.044 163.03 15.884ZM156.914 18.128V16.5C156.914 13.684 156.562 11.44 155.858 9.768C155.037 7.832 153.277 6.864 150.578 6.864C147.85 6.864 146.075 7.832 145.254 9.768C144.579 11.352 144.242 13.596 144.242 16.5V18.128C144.242 21.912 144.77 24.464 145.826 25.784C146.237 26.3413 146.838 26.8253 147.63 27.236C148.451 27.6173 149.419 27.808 150.534 27.808C151.678 27.808 152.646 27.6173 153.438 27.236C154.23 26.8547 154.846 26.3853 155.286 25.828C155.726 25.2707 156.063 24.5373 156.298 23.628C156.709 22.1907 156.914 20.3573 156.914 18.128Z"/>
</mask>
<path d="M26.7054 1.672L16.8494 31.24C16.3214 32.5893 15.3828 33.264 14.0334 33.264C12.6254 33.264 11.6574 32.5893 11.1294 31.24L1.40544 1.672H7.74144L14.0334 22.088L20.3254 1.672H26.7054ZM53.4598 15.884V18.26C53.4598 23.5107 52.4625 27.324 50.4678 29.7C48.5025 32.076 45.3345 33.264 40.9638 33.264C36.5932 33.264 33.4252 32.076 31.4598 29.7C29.5238 27.324 28.5558 23.4667 28.5558 18.128V15.84C28.5558 10.9707 29.5385 7.348 31.5038 4.972C33.4985 2.596 36.6372 1.408 40.9198 1.408C45.2318 1.408 48.3998 2.61066 50.4238 5.016C52.4478 7.42133 53.4598 11.044 53.4598 15.884ZM47.3438 18.128V16.5C47.3438 13.684 46.9918 11.44 46.2878 9.768C45.4665 7.832 43.7065 6.864 41.0078 6.864C38.2798 6.864 36.5052 7.832 35.6838 9.768C35.0092 11.352 34.6718 13.596 34.6718 16.5V18.128C34.6718 21.912 35.1998 24.464 36.2558 25.784C36.6665 26.3413 37.2678 26.8253 38.0598 27.236C38.8812 27.6173 39.8492 27.808 40.9638 27.808C42.1078 27.808 43.0758 27.6173 43.8678 27.236C44.6598 26.8547 45.2758 26.3853 45.7158 25.828C46.1558 25.2707 46.4932 24.5373 46.7278 23.628C47.1385 22.1907 47.3438 20.3573 47.3438 18.128ZM80.1923 1.672L70.7763 20.152V33H64.7043V20.152L55.2883 1.672H61.9323L67.7843 14.3L73.5483 1.672H80.1923ZM107.748 33H101.368L99.6079 27.588H89.0919L87.3759 33H80.9959L91.0279 4.312C91.4679 3.31467 91.9519 2.62533 92.4799 2.244C93.0373 1.86267 93.7119 1.672 94.5039 1.672C95.2959 1.672 95.9266 1.848 96.3959 2.2C96.8946 2.552 97.3346 3.256 97.7159 4.312L107.748 33ZM98.1999 22.44L94.5039 10.032L90.6319 22.44H98.1999ZM110.111 18.26V14.388C110.111 10.3107 111.181 7.128 113.323 4.84C115.464 2.552 118.427 1.408 122.211 1.408C125.995 1.408 129.031 2.552 131.319 4.84C132.932 6.45333 133.739 8.87333 133.739 12.1H128.019C128.019 8.60933 126.156 6.864 122.431 6.864C121.316 6.864 120.363 7.084 119.571 7.524C118.808 7.93467 118.236 8.41867 117.855 8.976C117.473 9.53333 117.18 10.3547 116.975 11.44C116.769 12.5253 116.652 13.4347 116.623 14.168C116.593 14.9013 116.579 15.884 116.579 17.116C116.579 18.348 116.579 19.184 116.579 19.624C116.608 20.0347 116.652 20.724 116.711 21.692C116.799 22.6307 116.916 23.3053 117.063 23.716C117.239 24.1267 117.473 24.6547 117.767 25.3C118.089 25.9453 118.485 26.4 118.955 26.664C120.157 27.4267 121.521 27.808 123.047 27.808C125.599 27.808 127.403 26.7227 128.459 24.552V22.44H124.675V17.336H133.695V26.796C132.785 28.9373 131.348 30.5507 129.383 31.636C127.417 32.7213 125.188 33.264 122.695 33.264C118.265 33.264 115.053 32.032 113.059 29.568C111.093 27.0747 110.111 23.3053 110.111 18.26ZM163.03 15.884V18.26C163.03 23.5107 162.033 27.324 160.038 29.7C158.073 32.076 154.905 33.264 150.534 33.264C146.163 33.264 142.995 32.076 141.03 29.7C139.094 27.324 138.126 23.4667 138.126 18.128V15.84C138.126 10.9707 139.109 7.348 141.074 4.972C143.069 2.596 146.207 1.408 150.49 1.408C154.802 1.408 157.97 2.61066 159.994 5.016C162.018 7.42133 163.03 11.044 163.03 15.884ZM156.914 18.128V16.5C156.914 13.684 156.562 11.44 155.858 9.768C155.037 7.832 153.277 6.864 150.578 6.864C147.85 6.864 146.075 7.832 145.254 9.768C144.579 11.352 144.242 13.596 144.242 16.5V18.128C144.242 21.912 144.77 24.464 145.826 25.784C146.237 26.3413 146.838 26.8253 147.63 27.236C148.451 27.6173 149.419 27.808 150.534 27.808C151.678 27.808 152.646 27.6173 153.438 27.236C154.23 26.8547 154.846 26.3853 155.286 25.828C155.726 25.2707 156.063 24.5373 156.298 23.628C156.709 22.1907 156.914 20.3573 156.914 18.128Z" fill="#3E3C80"/>
<path d="M26.7054 1.672L27.6541 1.98823L28.0929 0.671999H26.7054V1.672ZM16.8494 31.24L17.7807 31.6044L17.79 31.5805L17.7981 31.5562L16.8494 31.24ZM11.1294 31.24L10.1795 31.5524L10.1881 31.5787L10.1982 31.6044L11.1294 31.24ZM1.40544 1.672V0.671999H0.0238791L0.45549 1.98441L1.40544 1.672ZM7.74144 1.672L8.69708 1.37748L8.47966 0.671999H7.74144V1.672ZM14.0334 22.088L13.0778 22.3825L14.0334 25.4834L14.9891 22.3825L14.0334 22.088ZM20.3254 1.672V0.671999H19.5872L19.3698 1.37748L20.3254 1.672ZM25.7568 1.35577L15.9008 30.9238L17.7981 31.5562L27.6541 1.98823L25.7568 1.35577ZM15.9182 30.8756C15.7067 31.4161 15.4431 31.7467 15.1658 31.946C14.8937 32.1416 14.5348 32.264 14.0334 32.264V34.264C14.8814 34.264 15.6665 34.0491 16.3331 33.57C16.9944 33.0947 17.4642 32.4132 17.7807 31.6044L15.9182 30.8756ZM14.0334 32.264C13.4935 32.264 13.1091 32.1369 12.8232 31.9376C12.5352 31.7368 12.2692 31.4084 12.0607 30.8756L10.1982 31.6044C10.5177 32.4209 10.9997 33.1045 11.6796 33.5784C12.3617 34.0538 13.1653 34.264 14.0334 34.264V32.264ZM12.0794 30.9276L2.35539 1.35959L0.45549 1.98441L10.1795 31.5524L12.0794 30.9276ZM1.40544 2.672H7.74144V0.671999H1.40544V2.672ZM6.78579 1.96652L13.0778 22.3825L14.9891 21.7935L8.69708 1.37748L6.78579 1.96652ZM14.9891 22.3825L21.2811 1.96652L19.3698 1.37748L13.0778 21.7935L14.9891 22.3825ZM20.3254 2.672H26.7054V0.671999H20.3254V2.672ZM50.4678 29.7L49.7019 29.057L49.6973 29.0626L50.4678 29.7ZM31.4598 29.7L30.6846 30.3317L30.6893 30.3374L31.4598 29.7ZM31.5038 4.972L30.7379 4.32901L30.7333 4.33463L31.5038 4.972ZM46.2878 9.768L47.2095 9.37994L47.2084 9.37745L46.2878 9.768ZM35.6838 9.768L36.6039 10.1599L36.6044 10.1586L35.6838 9.768ZM36.2558 25.784L37.0609 25.1908L37.0491 25.1748L37.0367 25.1593L36.2558 25.784ZM38.0598 27.236L37.5995 28.1238L37.6189 28.1338L37.6387 28.143L38.0598 27.236ZM43.8678 27.236L43.434 26.335L43.8678 27.236ZM45.7158 25.828L44.931 25.2084L45.7158 25.828ZM46.7278 23.628L45.7663 23.3533L45.7628 23.3657L45.7596 23.3781L46.7278 23.628ZM52.4598 15.884V18.26H54.4598V15.884H52.4598ZM52.4598 18.26C52.4598 23.4248 51.4713 26.9495 49.702 29.057L51.2337 30.343C53.4538 27.6985 54.4598 23.5966 54.4598 18.26H52.4598ZM49.6973 29.0626C47.9914 31.1249 45.1661 32.264 40.9638 32.264V34.264C45.5029 34.264 49.0136 33.0271 51.2384 30.3374L49.6973 29.0626ZM40.9638 32.264C36.7616 32.264 33.9362 31.1249 32.2304 29.0626L30.6893 30.3374C32.9141 33.0271 36.4248 34.264 40.9638 34.264V32.264ZM32.2351 29.0683C30.5186 26.9617 29.5558 23.3904 29.5558 18.128H27.5558C27.5558 23.5429 28.5291 27.6863 30.6846 30.3317L32.2351 29.0683ZM29.5558 18.128V15.84H27.5558V18.128H29.5558ZM29.5558 15.84C29.5558 11.0764 30.522 7.72796 32.2744 5.60937L30.7333 4.33463C28.555 6.96804 27.5558 10.865 27.5558 15.84H29.5558ZM32.2697 5.61497C34.0097 3.54233 36.8147 2.408 40.9198 2.408V0.407997C36.4597 0.407997 32.9873 1.64966 30.738 4.32903L32.2697 5.61497ZM40.9198 2.408C45.0521 2.408 47.8882 3.55578 49.6587 5.65985L51.189 4.37215C48.9115 1.66555 45.4116 0.407997 40.9198 0.407997V2.408ZM49.6587 5.65985C51.4679 7.80991 52.4598 11.1583 52.4598 15.884H54.4598C54.4598 10.9297 53.4278 7.03275 51.189 4.37215L49.6587 5.65985ZM48.3438 18.128V16.5H46.3438V18.128H48.3438ZM48.3438 16.5C48.3438 13.6165 47.9858 11.2236 47.2095 9.37994L45.3662 10.1561C45.9979 11.6564 46.3438 13.7515 46.3438 16.5H48.3438ZM47.2084 9.37745C46.7146 8.21339 45.92 7.31123 44.8338 6.71378C43.7641 6.12545 42.4701 5.864 41.0078 5.864V7.864C42.2443 7.864 43.1796 8.08655 43.8699 8.46622C44.5437 8.83677 45.0398 9.38661 45.3673 10.1586L47.2084 9.37745ZM41.0078 5.864C39.5326 5.864 38.2286 6.12486 37.152 6.7121C36.0582 7.3087 35.2582 8.21087 34.7633 9.37745L36.6044 10.1586C36.9308 9.38913 37.4288 8.8393 38.1097 8.46789C38.8078 8.08713 39.7551 7.864 41.0078 7.864V5.864ZM34.7638 9.37614C34.0121 11.1409 33.6718 13.5413 33.6718 16.5H35.6718C35.6718 13.6507 36.0062 11.5631 36.6039 10.1599L34.7638 9.37614ZM33.6718 16.5V18.128H35.6718V16.5H33.6718ZM33.6718 18.128C33.6718 20.0604 33.8061 21.7175 34.0886 23.0826C34.3688 24.4371 34.8094 25.5768 35.475 26.4087L37.0367 25.1593C36.6462 24.6712 36.2949 23.8749 36.0471 22.6774C35.8015 21.4905 35.6718 19.9796 35.6718 18.128H33.6718ZM35.4508 26.3772C35.9746 27.0881 36.7095 27.6623 37.5995 28.1238L38.5202 26.3482C37.8262 25.9884 37.3584 25.5945 37.0609 25.1908L35.4508 26.3772ZM37.6387 28.143C38.6188 28.5981 39.7365 28.808 40.9638 28.808V26.808C39.9618 26.808 39.1435 26.6366 38.481 26.329L37.6387 28.143ZM40.9638 28.808C42.2145 28.808 43.3399 28.6001 44.3017 28.137L43.434 26.335C42.8118 26.6346 42.0012 26.808 40.9638 26.808V28.808ZM44.3017 28.137C45.1987 27.7051 45.9469 27.1492 46.5007 26.4476L44.931 25.2084C44.6048 25.6215 44.121 26.0042 43.434 26.335L44.3017 28.137ZM46.5007 26.4476C47.0499 25.752 47.4374 24.8806 47.6961 23.8779L45.7596 23.3781C45.549 24.1941 45.2618 24.7893 44.931 25.2084L46.5007 26.4476ZM47.6894 23.9027C48.1348 22.3438 48.3438 20.4094 48.3438 18.128H46.3438C46.3438 20.3053 46.1423 22.0375 45.7663 23.3533L47.6894 23.9027ZM80.1923 1.672L81.0833 2.12599L81.8241 0.671999H80.1923V1.672ZM70.7763 20.152L69.8852 19.698L69.7763 19.9119V20.152H70.7763ZM70.7763 33V34H71.7763V33H70.7763ZM64.7043 33H63.7043V34H64.7043V33ZM64.7043 20.152H65.7043V19.9119L65.5953 19.698L64.7043 20.152ZM55.2882 1.672V0.671999H53.6564L54.3972 2.12599L55.2882 1.672ZM61.9323 1.672L62.8396 1.25154L62.571 0.671999H61.9323V1.672ZM67.7842 14.3L66.8769 14.7205L67.7911 16.6932L68.694 14.7152L67.7842 14.3ZM73.5482 1.672V0.671999H72.9054L72.6385 1.25676L73.5482 1.672ZM79.3012 1.21801L69.8852 19.698L71.6673 20.606L81.0833 2.12599L79.3012 1.21801ZM69.7763 20.152V33H71.7763V20.152H69.7763ZM70.7763 32H64.7043V34H70.7763V32ZM65.7043 33V20.152H63.7043V33H65.7043ZM65.5953 19.698L56.1793 1.21801L54.3972 2.12599L63.8132 20.606L65.5953 19.698ZM55.2882 2.672H61.9323V0.671999H55.2882V2.672ZM61.0249 2.09246L66.8769 14.7205L68.6916 13.8795L62.8396 1.25154L61.0249 2.09246ZM68.694 14.7152L74.458 2.08723L72.6385 1.25676L66.8745 13.8848L68.694 14.7152ZM73.5482 2.672H80.1923V0.671999H73.5482V2.672ZM107.748 33V34H109.157L108.692 32.6699L107.748 33ZM101.368 33L100.417 33.3093L100.642 34H101.368V33ZM99.6079 27.588L100.559 27.2787L100.334 26.588H99.6079V27.588ZM89.0919 27.588V26.588H88.3599L88.1387 27.2858L89.0919 27.588ZM87.3759 33V34H88.1079L88.3292 33.3022L87.3759 33ZM80.9959 33L80.052 32.6699L79.5869 34H80.9959V33ZM91.0279 4.312L90.113 3.90836L90.0971 3.94456L90.084 3.98191L91.0279 4.312ZM92.4799 2.244L91.9153 1.41869L91.9048 1.42587L91.8944 1.43332L92.4799 2.244ZM96.3959 2.2L95.7959 3L95.8075 3.00865L95.8193 3.01697L96.3959 2.2ZM97.7159 4.312L98.6599 3.98189L98.6565 3.97236L97.7159 4.312ZM98.1999 22.44V23.44H99.5412L99.1583 22.1545L98.1999 22.44ZM94.5039 10.032L95.4623 9.74652L94.5262 6.60377L93.5493 9.73411L94.5039 10.032ZM90.6319 22.44L89.6773 22.1421L89.2723 23.44H90.6319V22.44ZM107.748 32H101.368V34H107.748V32ZM102.319 32.6907L100.559 27.2787L98.657 27.8973L100.417 33.3093L102.319 32.6907ZM99.6079 26.588H89.0919V28.588H99.6079V26.588ZM88.1387 27.2858L86.4227 32.6978L88.3292 33.3022L90.0452 27.8902L88.1387 27.2858ZM87.3759 32H80.9959V34H87.3759V32ZM81.9399 33.3301L91.9719 4.64209L90.084 3.98191L80.052 32.6699L81.9399 33.3301ZM91.9429 4.71564C92.354 3.78379 92.7482 3.28378 93.0654 3.05468L91.8944 1.43332C91.1557 1.96688 90.5819 2.84554 90.113 3.90836L91.9429 4.71564ZM93.0446 3.06931C93.4084 2.82039 93.8778 2.672 94.5039 2.672V0.671999C93.5461 0.671999 92.6661 0.904943 91.9153 1.41869L93.0446 3.06931ZM94.5039 2.672C95.1544 2.672 95.5513 2.81652 95.7959 3L96.9959 1.4C96.3019 0.879476 95.4374 0.671999 94.5039 0.671999V2.672ZM95.8193 3.01697C96.0605 3.18723 96.4132 3.64856 96.7754 4.65164L98.6565 3.97236C98.2561 2.86344 97.7287 1.91676 96.9726 1.38303L95.8193 3.01697ZM96.772 4.64209L106.804 33.3301L108.692 32.6699L98.6599 3.98191L96.772 4.64209ZM99.1583 22.1545L95.4623 9.74652L93.5456 10.3175L97.2416 22.7255L99.1583 22.1545ZM93.5493 9.73411L89.6773 22.1421L91.5865 22.7379L95.4585 10.3299L93.5493 9.73411ZM90.6319 23.44H98.1999V21.44H90.6319V23.44ZM113.323 4.84L114.053 5.52332L113.323 4.84ZM131.319 4.84L130.611 5.5471L131.319 4.84ZM133.739 12.1V13.1H134.739V12.1H133.739ZM128.019 12.1H127.019V13.1H128.019V12.1ZM119.571 7.524L120.045 8.40454L120.056 8.39816L119.571 7.524ZM117.855 8.976L117.029 8.41132H117.029L117.855 8.976ZM116.623 14.168L115.623 14.128L116.623 14.168ZM116.579 19.624H115.579V19.6597L115.581 19.6952L116.579 19.624ZM116.711 21.692L115.712 21.7525L115.713 21.7689L115.715 21.7853L116.711 21.692ZM117.063 23.716L116.121 24.0523L116.131 24.0815L116.143 24.1099L117.063 23.716ZM117.767 25.3L116.856 25.7138L116.864 25.7307L116.872 25.7472L117.767 25.3ZM118.955 26.664L119.49 25.8195L119.468 25.8054L119.445 25.7924L118.955 26.664ZM128.459 24.552L129.358 24.9895L129.459 24.7823V24.552H128.459ZM128.459 22.44H129.459V21.44H128.459V22.44ZM124.675 22.44H123.675V23.44H124.675V22.44ZM124.675 17.336V16.336H123.675V17.336H124.675ZM133.695 17.336H134.695V16.336H133.695V17.336ZM133.695 26.796L134.615 27.1869L134.695 26.9995V26.796H133.695ZM129.383 31.636L129.866 32.5114L129.383 31.636ZM113.059 29.568L112.273 30.1871L112.281 30.1972L113.059 29.568ZM111.111 18.26V14.388H109.111V18.26H111.111ZM111.111 14.388C111.111 10.4856 112.132 7.57555 114.053 5.52332L112.592 4.15668C110.23 6.68045 109.111 10.1357 109.111 14.388H111.111ZM114.053 5.52332C115.966 3.47854 118.641 2.408 122.211 2.408V0.407997C118.212 0.407997 114.961 1.62545 112.592 4.15668L114.053 5.52332ZM122.211 2.408C125.778 2.408 128.543 3.47835 130.611 5.5471L132.026 4.13289C129.518 1.62564 126.211 0.407997 122.211 0.407997V2.408ZM130.611 5.5471C131.971 6.90676 132.739 9.02748 132.739 12.1H134.739C134.739 8.71919 133.893 5.9999 132.026 4.13289L130.611 5.5471ZM133.739 11.1H128.019V13.1H133.739V11.1ZM129.019 12.1C129.019 10.1833 128.504 8.56653 127.305 7.44328C126.119 6.3315 124.432 5.864 122.431 5.864V7.864C124.155 7.864 125.262 8.26916 125.938 8.90271C126.602 9.5248 127.019 10.5261 127.019 12.1H129.019ZM122.431 5.864C121.185 5.864 120.056 6.11034 119.085 6.64984L120.056 8.39816C120.669 8.05766 121.447 7.864 122.431 7.864V5.864ZM119.096 6.64353C118.232 7.10913 117.523 7.69023 117.029 8.41132L118.68 9.54068C118.949 9.1471 119.384 8.76021 120.045 8.40447L119.096 6.64353ZM117.029 8.41132C116.536 9.1326 116.209 10.1087 115.992 11.2541L117.957 11.6259C118.151 10.6006 118.411 9.93407 118.68 9.54068L117.029 8.41132ZM115.992 11.2541C115.782 12.3661 115.655 13.3279 115.623 14.128L117.622 14.208C117.648 13.5414 117.757 12.6845 117.957 11.6259L115.992 11.2541ZM115.623 14.128C115.593 14.8806 115.579 15.8783 115.579 17.116H117.579C117.579 15.8897 117.593 14.9221 117.622 14.208L115.623 14.128ZM115.579 17.116C115.579 17.1184 115.579 17.1208 115.579 17.1232C115.579 17.1256 115.579 17.128 115.579 17.1304C115.579 17.1328 115.579 17.1352 115.579 17.1376C115.579 17.14 115.579 17.1424 115.579 17.1448C115.579 17.1472 115.579 17.1496 115.579 17.152C115.579 17.1544 115.579 17.1568 115.579 17.1591C115.579 17.1615 115.579 17.1639 115.579 17.1663C115.579 17.1687 115.579 17.1711 115.579 17.1735C115.579 17.1758 115.579 17.1782 115.579 17.1806C115.579 17.183 115.579 17.1854 115.579 17.1877C115.579 17.1901 115.579 17.1925 115.579 17.1949C115.579 17.1972 115.579 17.1996 115.579 17.202C115.579 17.2043 115.579 17.2067 115.579 17.2091C115.579 17.2114 115.579 17.2138 115.579 17.2162C115.579 17.2185 115.579 17.2209 115.579 17.2233C115.579 17.2256 115.579 17.228 115.579 17.2303C115.579 17.2327 115.579 17.2351 115.579 17.2374C115.579 17.2398 115.579 17.2421 115.579 17.2445C115.579 17.2468 115.579 17.2492 115.579 17.2515C115.579 17.2539 115.579 17.2562 115.579 17.2586C115.579 17.2609 115.579 17.2633 115.579 17.2656C115.579 17.2679 115.579 17.2703 115.579 17.2726C115.579 17.275 115.579 17.2773 115.579 17.2796C115.579 17.282 115.579 17.2843 115.579 17.2866C115.579 17.289 115.579 17.2913 115.579 17.2936C115.579 17.296 115.579 17.2983 115.579 17.3006C115.579 17.3029 115.579 17.3053 115.579 17.3076C115.579 17.3099 115.579 17.3122 115.579 17.3146C115.579 17.3169 115.579 17.3192 115.579 17.3215C115.579 17.3239 115.579 17.3262 115.579 17.3285C115.579 17.3308 115.579 17.3331 115.579 17.3354C115.579 17.3377 115.579 17.34 115.579 17.3424C115.579 17.3447 115.579 17.347 115.579 17.3493C115.579 17.3516 115.579 17.3539 115.579 17.3562C115.579 17.3585 115.579 17.3608 115.579 17.3631C115.579 17.3654 115.579 17.3677 115.579 17.37C115.579 17.3723 115.579 17.3746 115.579 17.3769C115.579 17.3792 115.579 17.3815 115.579 17.3838C115.579 17.3861 115.579 17.3883 115.579 17.3906C115.579 17.3929 115.579 17.3952 115.579 17.3975C115.579 17.3998 115.579 17.4021 115.579 17.4044C115.579 17.4066 115.579 17.4089 115.579 17.4112C115.579 17.4135 115.579 17.4157 115.579 17.418C115.579 17.4203 115.579 17.4226 115.579 17.4249C115.579 17.4271 115.579 17.4294 115.579 17.4317C115.579 17.4339 115.579 17.4362 115.579 17.4385C115.579 17.4407 115.579 17.443 115.579 17.4453C115.579 17.4475 115.579 17.4498 115.579 17.4521C115.579 17.4543 115.579 17.4566 115.579 17.4588C115.579 17.4611 115.579 17.4634 115.579 17.4656C115.579 17.4679 115.579 17.4701 115.579 17.4724C115.579 17.4746 115.579 17.4769 115.579 17.4791C115.579 17.4814 115.579 17.4836 115.579 17.4859C115.579 17.4881 115.579 17.4904 115.579 17.4926C115.579 17.4948 115.579 17.4971 115.579 17.4993C115.579 17.5016 115.579 17.5038 115.579 17.506C115.579 17.5083 115.579 17.5105 115.579 17.5127C115.579 17.515 115.579 17.5172 115.579 17.5194C115.579 17.5217 115.579 17.5239 115.579 17.5261C115.579 17.5284 115.579 17.5306 115.579 17.5328C115.579 17.535 115.579 17.5373 115.579 17.5395C115.579 17.5417 115.579 17.5439 115.579 17.5461C115.579 17.5484 115.579 17.5506 115.579 17.5528C115.579 17.555 115.579 17.5572 115.579 17.5594C115.579 17.5616 115.579 17.5639 115.579 17.5661C115.579 17.5683 115.579 17.5705 115.579 17.5727C115.579 17.5749 115.579 17.5771 115.579 17.5793C115.579 17.5815 115.579 17.5837 115.579 17.5859C115.579 17.5881 115.579 17.5903 115.579 17.5925C115.579 17.5947 115.579 17.5969 115.579 17.5991C115.579 17.6013 115.579 17.6035 115.579 17.6057C115.579 17.6079 115.579 17.6101 115.579 17.6123C115.579 17.6144 115.579 17.6166 115.579 17.6188C115.579 17.621 115.579 17.6232 115.579 17.6254C115.579 17.6276 115.579 17.6297 115.579 17.6319C115.579 17.6341 115.579 17.6363 115.579 17.6384C115.579 17.6406 115.579 17.6428 115.579 17.645C115.579 17.6471 115.579 17.6493 115.579 17.6515C115.579 17.6537 115.579 17.6558 115.579 17.658C115.579 17.6602 115.579 17.6623 115.579 17.6645C115.579 17.6667 115.579 17.6688 115.579 17.671C115.579 17.6731 115.579 17.6753 115.579 17.6775C115.579 17.6796 115.579 17.6818 115.579 17.6839C115.579 17.6861 115.579 17.6882 115.579 17.6904C115.579 17.6925 115.579 17.6947 115.579 17.6968C115.579 17.699 115.579 17.7011 115.579 17.7033C115.579 17.7054 115.579 17.7076 115.579 17.7097C115.579 17.7119 115.579 17.714 115.579 17.7162C115.579 17.7183 115.579 17.7204 115.579 17.7226C115.579 17.7247 115.579 17.7268 115.579 17.729C115.579 17.7311 115.579 17.7332 115.579 17.7354C115.579 17.7375 115.579 17.7396 115.579 17.7418C115.579 17.7439 115.579 17.746 115.579 17.7481C115.579 17.7503 115.579 17.7524 115.579 17.7545C115.579 17.7566 115.579 17.7588 115.579 17.7609C115.579 17.763 115.579 17.7651 115.579 17.7672C115.579 17.7694 115.579 17.7715 115.579 17.7736C115.579 17.7757 115.579 17.7778 115.579 17.7799C115.579 17.782 115.579 17.7841 115.579 17.7862C115.579 17.7883 115.579 17.7905 115.579 17.7926C115.579 17.7947 115.579 17.7968 115.579 17.7989C115.579 17.801 115.579 17.8031 115.579 17.8052C115.579 17.8073 115.579 17.8094 115.579 17.8115C115.579 17.8135 115.579 17.8156 115.579 17.8177C115.579 17.8198 115.579 17.8219 115.579 17.824C115.579 17.8261 115.579 17.8282 115.579 17.8303C115.579 17.8324 115.579 17.8344 115.579 17.8365C115.579 17.8386 115.579 17.8407 115.579 17.8428C115.579 17.8448 115.579 17.8469 115.579 17.849C115.579 17.8511 115.579 17.8532 115.579 17.8552C115.579 17.8573 115.579 17.8594 115.579 17.8614C115.579 17.8635 115.579 17.8656 115.579 17.8677C115.579 17.8697 115.579 17.8718 115.579 17.8738C115.579 17.8759 115.579 17.878 115.579 17.88C115.579 17.8821 115.579 17.8842 115.579 17.8862C115.579 17.8883 115.579 17.8903 115.579 17.8924C115.579 17.8944 115.579 17.8965 115.579 17.8986C115.579 17.9006 115.579 17.9027 115.579 17.9047C115.579 17.9068 115.579 17.9088 115.579 17.9109C115.579 17.9129 115.579 17.9149 115.579 17.917C115.579 17.919 115.579 17.9211 115.579 17.9231C115.579 17.9252 115.579 17.9272 115.579 17.9292C115.579 17.9313 115.579 17.9333 115.579 17.9353C115.579 17.9374 115.579 17.9394 115.579 17.9414C115.579 17.9435 115.579 17.9455 115.579 17.9475C115.579 17.9496 115.579 17.9516 115.579 17.9536C115.579 17.9556 115.579 17.9577 115.579 17.9597C115.579 17.9617 115.579 17.9637 115.579 17.9657C115.579 17.9678 115.579 17.9698 115.579 17.9718C115.579 17.9738 115.579 17.9758 115.579 17.9778C115.579 17.9799 115.579 17.9819 115.579 17.9839C115.579 17.9859 115.579 17.9879 115.579 17.9899C115.579 17.9919 115.579 17.9939 115.579 17.9959C115.579 17.9979 115.579 17.9999 115.579 18.0019C115.579 18.0039 115.579 18.0059 115.579 18.0079C115.579 18.0099 115.579 18.0119 115.579 18.0139C115.579 18.0159 115.579 18.0179 115.579 18.0199C115.579 18.0219 115.579 18.0239 115.579 18.0259C115.579 18.0279 115.579 18.0299 115.579 18.0318C115.579 18.0338 115.579 18.0358 115.579 18.0378C115.579 18.0398 115.579 18.0418 115.579 18.0437C115.579 18.0457 115.579 18.0477 115.579 18.0497C115.579 18.0517 115.579 18.0536 115.579 18.0556C115.579 18.0576 115.579 18.0596 115.579 18.0615C115.579 18.0635 115.579 18.0655 115.579 18.0674C115.579 18.0694 115.579 18.0714 115.579 18.0733C115.579 18.0753 115.579 18.0773 115.579 18.0792C115.579 18.0812 115.579 18.0831 115.579 18.0851C115.579 18.0871 115.579 18.089 115.579 18.091C115.579 18.0929 115.579 18.0949 115.579 18.0968C115.579 18.0988 115.579 18.1007 115.579 18.1027C115.579 18.1046 115.579 18.1066 115.579 18.1085C115.579 18.1105 115.579 18.1124 115.579 18.1144C115.579 18.1163 115.579 18.1183 115.579 18.1202C115.579 18.1222 115.579 18.1241 115.579 18.126C115.579 18.128 115.579 18.1299 115.579 18.1318C115.579 18.1338 115.579 18.1357 115.579 18.1376C115.579 18.1396 115.579 18.1415 115.579 18.1434C115.579 18.1454 115.579 18.1473 115.579 18.1492C115.579 18.1511 115.579 18.1531 115.579 18.155C115.579 18.1569 115.579 18.1588 115.579 18.1607C115.579 18.1627 115.579 18.1646 115.579 18.1665C115.579 18.1684 115.579 18.1703 115.579 18.1722C115.579 18.1742 115.579 18.1761 115.579 18.178C115.579 18.1799 115.579 18.1818 115.579 18.1837C115.579 18.1856 115.579 18.1875 115.579 18.1894C115.579 18.1913 115.579 18.1932 115.579 18.1951C115.579 18.197 115.579 18.1989 115.579 18.2008C115.579 18.2027 115.579 18.2046 115.579 18.2065C115.579 18.2084 115.579 18.2103 115.579 18.2122C115.579 18.2141 115.579 18.216 115.579 18.2179C115.579 18.2198 115.579 18.2217 115.579 18.2236C115.579 18.2254 115.579 18.2273 115.579 18.2292C115.579 18.2311 115.579 18.233 115.579 18.2349C115.579 18.2367 115.579 18.2386 115.579 18.2405C115.579 18.2424 115.579 18.2442 115.579 18.2461C115.579 18.248 115.579 18.2499 115.579 18.2517C115.579 18.2536 115.579 18.2555 115.579 18.2573C115.579 18.2592 115.579 18.2611 115.579 18.263C115.579 18.2648 115.579 18.2667 115.579 18.2685C115.579 18.2704 115.579 18.2723 115.579 18.2741C115.579 18.276 115.579 18.2778 115.579 18.2797C115.579 18.2816 115.579 18.2834 115.579 18.2853C115.579 18.2871 115.579 18.289 115.579 18.2908C115.579 18.2927 115.579 18.2945 115.579 18.2964C115.579 18.2982 115.579 18.3001 115.579 18.3019C115.579 18.3037 115.579 18.3056 115.579 18.3074C115.579 18.3093 115.579 18.3111 115.579 18.313C115.579 18.3148 115.579 18.3166 115.579 18.3185C115.579 18.3203 115.579 18.3221 115.579 18.324C115.579 18.3258 115.579 18.3276 115.579 18.3295C115.579 18.3313 115.579 18.3331 115.579 18.3349C115.579 18.3368 115.579 18.3386 115.579 18.3404C115.579 18.3422 115.579 18.3441 115.579 18.3459C115.579 18.3477 115.579 18.3495 115.579 18.3513C115.579 18.3531 115.579 18.355 115.579 18.3568C115.579 18.3586 115.579 18.3604 115.579 18.3622C115.579 18.364 115.579 18.3658 115.579 18.3676C115.579 18.3695 115.579 18.3713 115.579 18.3731C115.579 18.3749 115.579 18.3767 115.579 18.3785C115.579 18.3803 115.579 18.3821 115.579 18.3839C115.579 18.3857 115.579 18.3875 115.579 18.3893C115.579 18.3911 115.579 18.3929 115.579 18.3947C115.579 18.3964 115.579 18.3982 115.579 18.4C115.579 18.4018 115.579 18.4036 115.579 18.4054C115.579 18.4072 115.579 18.409 115.579 18.4107C115.579 18.4125 115.579 18.4143 115.579 18.4161C115.579 18.4179 115.579 18.4197 115.579 18.4214C115.579 18.4232 115.579 18.425 115.579 18.4268C115.579 18.4285 115.579 18.4303 115.579 18.4321C115.579 18.4339 115.579 18.4356 115.579 18.4374C115.579 18.4392 115.579 18.4409 115.579 18.4427C115.579 18.4445 115.579 18.4462 115.579 18.448C115.579 18.4497 115.579 18.4515 115.579 18.4533C115.579 18.455 115.579 18.4568 115.579 18.4585C115.579 18.4603 115.579 18.4621 115.579 18.4638C115.579 18.4656 115.579 18.4673 115.579 18.4691C115.579 18.4708 115.579 18.4726 115.579 18.4743C115.579 18.4761 115.579 18.4778 115.579 18.4796C115.579 18.4813 115.579 18.483 115.579 18.4848C115.579 18.4865 115.579 18.4883 115.579 18.49C115.579 18.4917 115.579 18.4935 115.579 18.4952C115.579 18.4969 115.579 18.4987 115.579 18.5004C115.579 18.5021 115.579 18.5039 115.579 18.5056C115.579 18.5073 115.579 18.5091 115.579 18.5108C115.579 18.5125 115.579 18.5142 115.579 18.516C115.579 18.5177 115.579 18.5194 115.579 18.5211C115.579 18.5229 115.579 18.5246 115.579 18.5263C115.579 18.528 115.579 18.5297 115.579 18.5314C115.579 18.5332 115.579 18.5349 115.579 18.5366C115.579 18.5383 115.579 18.54 115.579 18.5417C115.579 18.5434 115.579 18.5451 115.579 18.5468C115.579 18.5485 115.579 18.5502 115.579 18.5519C115.579 18.5536 115.579 18.5553 115.579 18.557C115.579 18.5587 115.579 18.5604 115.579 18.5621C115.579 18.5638 115.579 18.5655 115.579 18.5672C115.579 18.5689 115.579 18.5706 115.579 18.5723C115.579 18.574 115.579 18.5757 115.579 18.5774C115.579 18.579 115.579 18.5807 115.579 18.5824C115.579 18.5841 115.579 18.5858 115.579 18.5875C115.579 18.5891 115.579 18.5908 115.579 18.5925C115.579 18.5942 115.579 18.5959 115.579 18.5975C115.579 18.5992 115.579 18.6009 115.579 18.6026C115.579 18.6042 115.579 18.6059 115.579 18.6076C115.579 18.6092 115.579 18.6109 115.579 18.6126C115.579 18.6142 115.579 18.6159 115.579 18.6176C115.579 18.6192 115.579 18.6209 115.579 18.6225C115.579 18.6242 115.579 18.6259 115.579 18.6275C115.579 18.6292 115.579 18.6308 115.579 18.6325C115.579 18.6341 115.579 18.6358 115.579 18.6374C115.579 18.6391 115.579 18.6407 115.579 18.6424C115.579 18.644 115.579 18.6457 115.579 18.6473C115.579 18.649 115.579 18.6506 115.579 18.6523C115.579 18.6539 115.579 18.6555 115.579 18.6572C115.579 18.6588 115.579 18.6605 115.579 18.6621C115.579 18.6637 115.579 18.6654 115.579 18.667C115.579 18.6686 115.579 18.6703 115.579 18.6719C115.579 18.6735 115.579 18.6752 115.579 18.6768C115.579 18.6784 115.579 18.68 115.579 18.6817C115.579 18.6833 115.579 18.6849 115.579 18.6865C115.579 18.6881 115.579 18.6898 115.579 18.6914C115.579 18.693 115.579 18.6946 115.579 18.6962C115.579 18.6978 115.579 18.6995 115.579 18.7011C115.579 18.7027 115.579 18.7043 115.579 18.7059C115.579 18.7075 115.579 18.7091 115.579 18.7107C115.579 18.7123 115.579 18.7139 115.579 18.7155C115.579 18.7171 115.579 18.7187 115.579 18.7203C115.579 18.7219 115.579 18.7235 115.579 18.7251C115.579 18.7267 115.579 18.7283 115.579 18.7299C115.579 18.7315 115.579 18.7331 115.579 18.7347C115.579 18.7363 115.579 18.7379 115.579 18.7395C115.579 18.741 115.579 18.7426 115.579 18.7442C115.579 18.7458 115.579 18.7474 115.579 18.749C115.579 18.7505 115.579 18.7521 115.579 18.7537C115.579 18.7553 115.579 18.7569 115.579 18.7584C115.579 18.76 115.579 18.7616 115.579 18.7632C115.579 18.7647 115.579 18.7663 115.579 18.7679C115.579 18.7694 115.579 18.771 115.579 18.7726C115.579 18.7741 115.579 18.7757 115.579 18.7773C115.579 18.7788 115.579 18.7804 115.579 18.782C115.579 18.7835 115.579 18.7851 115.579 18.7866C115.579 18.7882 115.579 18.7897 115.579 18.7913C115.579 18.7928 115.579 18.7944 115.579 18.796C115.579 18.7975 115.579 18.7991 115.579 18.8006C115.579 18.8022 115.579 18.8037 115.579 18.8052C115.579 18.8068 115.579 18.8083 115.579 18.8099C115.579 18.8114 115.579 18.813 115.579 18.8145C115.579 18.816 115.579 18.8176 115.579 18.8191C115.579 18.8206 115.579 18.8222 115.579 18.8237C115.579 18.8252 115.579 18.8268 115.579 18.8283C115.579 18.8298 115.579 18.8314 115.579 18.8329C115.579 18.8344 115.579 18.8359 115.579 18.8375C115.579 18.839 115.579 18.8405 115.579 18.842C115.579 18.8436 115.579 18.8451 115.579 18.8466C115.579 18.8481 115.579 18.8496 115.579 18.8511C115.579 18.8527 115.579 18.8542 115.579 18.8557C115.579 18.8572 115.579 18.8587 115.579 18.8602C115.579 18.8617 115.579 18.8632 115.579 18.8647C115.579 18.8662 115.579 18.8678 115.579 18.8693C115.579 18.8708 115.579 18.8723 115.579 18.8738C115.579 18.8753 115.579 18.8768 115.579 18.8783C115.579 18.8797 115.579 18.8812 115.579 18.8827C115.579 18.8842 115.579 18.8857 115.579 18.8872C115.579 18.8887 115.579 18.8902 115.579 18.8917C115.579 18.8932 115.579 18.8947 115.579 18.8961C115.579 18.8976 115.579 18.8991 115.579 18.9006C115.579 18.9021 115.579 18.9036 115.579 18.905C115.579 18.9065 115.579 18.908 115.579 18.9095C115.579 18.9109 115.579 18.9124 115.579 18.9139C115.579 18.9154 115.579 18.9168 115.579 18.9183C115.579 18.9198 115.579 18.9212 115.579 18.9227C115.579 18.9242 115.579 18.9256 115.579 18.9271C115.579 18.9286 115.579 18.93 115.579 18.9315C115.579 18.9329 115.579 18.9344 115.579 18.9359C115.579 18.9373 115.579 18.9388 115.579 18.9402C115.579 18.9417 115.579 18.9431 115.579 18.9446C115.579 18.946 115.579 18.9475 115.579 18.9489C115.579 18.9504 115.579 18.9518 115.579 18.9533C115.579 18.9547 115.579 18.9562 115.579 18.9576C115.579 18.9591 115.579 18.9605 115.579 18.9619C115.579 18.9634 115.579 18.9648 115.579 18.9663C115.579 18.9677 115.579 18.9691 115.579 18.9706C115.579 18.972 115.579 18.9734 115.579 18.9749C115.579 18.9763 115.579 18.9777 115.579 18.9791C115.579 18.9806 115.579 18.982 115.579 18.9834C115.579 18.9848 115.579 18.9863 115.579 18.9877C115.579 18.9891 115.579 18.9905 115.579 18.9919C115.579 18.9934 115.579 18.9948 115.579 18.9962C115.579 18.9976 115.579 18.999 115.579 19.0004C115.579 19.0018 115.579 19.0033 115.579 19.0047C115.579 19.0061 115.579 19.0075 115.579 19.0089C115.579 19.0103 115.579 19.0117 115.579 19.0131C115.579 19.0145 115.579 19.0159 115.579 19.0173C115.579 19.0187 115.579 19.0201 115.579 19.0215C115.579 19.0229 115.579 19.0243 115.579 19.0257C115.579 19.0271 115.579 19.0285 115.579 19.0299C115.579 19.0313 115.579 19.0327 115.579 19.034C115.579 19.0354 115.579 19.0368 115.579 19.0382C115.579 19.0396 115.579 19.041 115.579 19.0423C115.579 19.0437 115.579 19.0451 115.579 19.0465C115.579 19.0479 115.579 19.0492 115.579 19.0506C115.579 19.052 115.579 19.0534 115.579 19.0547C115.579 19.0561 115.579 19.0575 115.579 19.0589C115.579 19.0602 115.579 19.0616 115.579 19.063C115.579 19.0643 115.579 19.0657 115.579 19.0671C115.579 19.0684 115.579 19.0698 115.579 19.0711C115.579 19.0725 115.579 19.0739 115.579 19.0752C115.579 19.0766 115.579 19.0779 115.579 19.0793C115.579 19.0807 115.579 19.082 115.579 19.0834C115.579 19.0847 115.579 19.0861 115.579 19.0874C115.579 19.0888 115.579 19.0901 115.579 19.0915C115.579 19.0928 115.579 19.0941 115.579 19.0955C115.579 19.0968 115.579 19.0982 115.579 19.0995C115.579 19.1008 115.579 19.1022 115.579 19.1035C115.579 19.1049 115.579 19.1062 115.579 19.1075C115.579 19.1089 115.579 19.1102 115.579 19.1115C115.579 19.1129 115.579 19.1142 115.579 19.1155C115.579 19.1168 115.579 19.1182 115.579 19.1195C115.579 19.1208 115.579 19.1221 115.579 19.1235C115.579 19.1248 115.579 19.1261 115.579 19.1274C115.579 19.1287 115.579 19.1301 115.579 19.1314C115.579 19.1327 115.579 19.134 115.579 19.1353C115.579 19.1366 115.579 19.1379 115.579 19.1392C115.579 19.1406 115.579 19.1419 115.579 19.1432C115.579 19.1445 115.579 19.1458 115.579 19.1471C115.579 19.1484 115.579 19.1497 115.579 19.151C115.579 19.1523 115.579 19.1536 115.579 19.1549C115.579 19.1562 115.579 19.1575 115.579 19.1588C115.579 19.1601 115.579 19.1614 115.579 19.1627C115.579 19.1639 115.579 19.1652 115.579 19.1665C115.579 19.1678 115.579 19.1691 115.579 19.1704C115.579 19.1717 115.579 19.173 115.579 19.1742C115.579 19.1755 115.579 19.1768 115.579 19.1781C115.579 19.1794 115.579 19.1806 115.579 19.1819C115.579 19.1832 115.579 19.1845 115.579 19.1857C115.579 19.187 115.579 19.1883 115.579 19.1896C115.579 19.1908 115.579 19.1921 115.579 19.1934C115.579 19.1946 115.579 19.1959 115.579 19.1972C115.579 19.1984 115.579 19.1997 115.579 19.2009C115.579 19.2022 115.579 19.2035 115.579 19.2047C115.579 19.206 115.579 19.2072 115.579 19.2085C115.579 19.2097 115.579 19.211 115.579 19.2123C115.579 19.2135 115.579 19.2148 115.579 19.216C115.579 19.2173 115.579 19.2185 115.579 19.2197C115.579 19.221 115.579 19.2222 115.579 19.2235C115.579 19.2247 115.579 19.226 115.579 19.2272C115.579 19.2284 115.579 19.2297 115.579 19.2309C115.579 19.2322 115.579 19.2334 115.579 19.2346C115.579 19.2359 115.579 19.2371 115.579 19.2383C115.579 19.2396 115.579 19.2408 115.579 19.242C115.579 19.2432 115.579 19.2445 115.579 19.2457C115.579 19.2469 115.579 19.2481 115.579 19.2494C115.579 19.2506 115.579 19.2518 115.579 19.253C115.579 19.2542 115.579 19.2555 115.579 19.2567C115.579 19.2579 115.579 19.2591 115.579 19.2603C115.579 19.2615 115.579 19.2627 115.579 19.264C115.579 19.2652 115.579 19.2664 115.579 19.2676C115.579 19.2688 115.579 19.27 115.579 19.2712C115.579 19.2724 115.579 19.2736 115.579 19.2748C115.579 19.276 115.579 19.2772 115.579 19.2784C115.579 19.2796 115.579 19.2808 115.579 19.282C115.579 19.2832 115.579 19.2844 115.579 19.2856C115.579 19.2868 115.579 19.288 115.579 19.2891C115.579 19.2903 115.579 19.2915 115.579 19.2927C115.579 19.2939 115.579 19.2951 115.579 19.2963C115.579 19.2974 115.579 19.2986 115.579 19.2998C115.579 19.301 115.579 19.3022 115.579 19.3033C115.579 19.3045 115.579 19.3057 115.579 19.3069C115.579 19.308 115.579 19.3092 115.579 19.3104C115.579 19.3115 115.579 19.3127 115.579 19.3139C115.579 19.315 115.579 19.3162 115.579 19.3174C115.579 19.3185 115.579 19.3197 115.579 19.3209C115.579 19.322 115.579 19.3232 115.579 19.3243C115.579 19.3255 115.579 19.3267 115.579 19.3278C115.579 19.329 115.579 19.3301 115.579 19.3313C115.579 19.3324 115.579 19.3336 115.579 19.3347C115.579 19.3359 115.579 19.337 115.579 19.3382C115.579 19.3393 115.579 19.3405 115.579 19.3416C115.579 19.3428 115.579 19.3439 115.579 19.345C115.579 19.3462 115.579 19.3473 115.579 19.3485C115.579 19.3496 115.579 19.3507 115.579 19.3519C115.579 19.353 115.579 19.3541 115.579 19.3553C115.579 19.3564 115.579 19.3575 115.579 19.3587C115.579 19.3598 115.579 19.3609 115.579 19.362C115.579 19.3632 115.579 19.3643 115.579 19.3654C115.579 19.3665 115.579 19.3676 115.579 19.3688C115.579 19.3699 115.579 19.371 115.579 19.3721C115.579 19.3732 115.579 19.3743 115.579 19.3755C115.579 19.3766 115.579 19.3777 115.579 19.3788C115.579 19.3799 115.579 19.381 115.579 19.3821C115.579 19.3832 115.579 19.3843 115.579 19.3854C115.579 19.3865 115.579 19.3876 115.579 19.3887C115.579 19.3898 115.579 19.3909 115.579 19.392C115.579 19.3931 115.579 19.3942 115.579 19.3953C115.579 19.3964 115.579 19.3975 115.579 19.3986C115.579 19.3997 115.579 19.4008 115.579 19.4019C115.579 19.403 115.579 19.4041 115.579 19.4051C115.579 19.4062 115.579 19.4073 115.579 19.4084C115.579 19.4095 115.579 19.4106 115.579 19.4116C115.579 19.4127 115.579 19.4138 115.579 19.4149C115.579 19.416 115.579 19.417 115.579 19.4181C115.579 19.4192 115.579 19.4203 115.579 19.4213C115.579 19.4224 115.579 19.4235 115.579 19.4245C115.579 19.4256 115.579 19.4267 115.579 19.4277C115.579 19.4288 115.579 19.4299 115.579 19.4309C115.579 19.432 115.579 19.433 115.579 19.4341C115.579 19.4352 115.579 19.4362 115.579 19.4373C115.579 19.4383 115.579 19.4394 115.579 19.4404C115.579 19.4415 115.579 19.4425 115.579 19.4436C115.579 19.4446 115.579 19.4457 115.579 19.4467C115.579 19.4478 115.579 19.4488 115.579 19.4499C115.579 19.4509 115.579 19.452 115.579 19.453C115.579 19.454 115.579 19.4551 115.579 19.4561C115.579 19.4572 115.579 19.4582 115.579 19.4592C115.579 19.4603 115.579 19.4613 115.579 19.4623C115.579 19.4634 115.579 19.4644 115.579 19.4654C115.579 19.4664 115.579 19.4675 115.579 19.4685C115.579 19.4695 115.579 19.4705 115.579 19.4716C115.579 19.4726 115.579 19.4736 115.579 19.4746C115.579 19.4756 115.579 19.4767 115.579 19.4777C115.579 19.4787 115.579 19.4797 115.579 19.4807C115.579 19.4817 115.579 19.4828 115.579 19.4838C115.579 19.4848 115.579 19.4858 115.579 19.4868C115.579 19.4878 115.579 19.4888 115.579 19.4898C115.579 19.4908 115.579 19.4918 115.579 19.4928C115.579 19.4938 115.579 19.4948 115.579 19.4958C115.579 19.4968 115.579 19.4978 115.579 19.4988C115.579 19.4998 115.579 19.5008 115.579 19.5018C115.579 19.5028 115.579 19.5038 115.579 19.5048C115.579 19.5058 115.579 19.5067 115.579 19.5077C115.579 19.5087 115.579 19.5097 115.579 19.5107C115.579 19.5117 115.579 19.5126 115.579 19.5136C115.579 19.5146 115.579 19.5156 115.579 19.5166C115.579 19.5175 115.579 19.5185 115.579 19.5195C115.579 19.5205 115.579 19.5214 115.579 19.5224C115.579 19.5234 115.579 19.5243 115.579 19.5253C115.579 19.5263 115.579 19.5272 115.579 19.5282C115.579 19.5292 115.579 19.5301 115.579 19.5311C115.579 19.5321 115.579 19.533 115.579 19.534C115.579 19.5349 115.579 19.5359 115.579 19.5369C115.579 19.5378 115.579 19.5388 115.579 19.5397C115.579 19.5407 115.579 19.5416 115.579 19.5426C115.579 19.5435 115.579 19.5445 115.579 19.5454C115.579 19.5464 115.579 19.5473 115.579 19.5483C115.579 19.5492 115.579 19.5501 115.579 19.5511C115.579 19.552 115.579 19.553 115.579 19.5539C115.579 19.5548 115.579 19.5558 115.579 19.5567C115.579 19.5576 115.579 19.5586 115.579 19.5595C115.579 19.5604 115.579 19.5614 115.579 19.5623C115.579 19.5632 115.579 19.5642 115.579 19.5651C115.579 19.566 115.579 19.5669 115.579 19.5679C115.579 19.5688 115.579 19.5697 115.579 19.5706C115.579 19.5715 115.579 19.5725 115.579 19.5734C115.579 19.5743 115.579 19.5752 115.579 19.5761C115.579 19.577 115.579 19.578 115.579 19.5789C115.579 19.5798 115.579 19.5807 115.579 19.5816C115.579 19.5825 115.579 19.5834 115.579 19.5843C115.579 19.5852 115.579 19.5861 115.579 19.587C115.579 19.5879 115.579 19.5888 115.579 19.5897C115.579 19.5906 115.579 19.5915 115.579 19.5924C115.579 19.5933 115.579 19.5942 115.579 19.5951C115.579 19.596 115.579 19.5969 115.579 19.5978C115.579 19.5987 115.579 19.5995 115.579 19.6004C115.579 19.6013 115.579 19.6022 115.579 19.6031C115.579 19.604 115.579 19.6048 115.579 19.6057C115.579 19.6066 115.579 19.6075 115.579 19.6084C115.579 19.6092 115.579 19.6101 115.579 19.611C115.579 19.6119 115.579 19.6127 115.579 19.6136C115.579 19.6145 115.579 19.6154 115.579 19.6162C115.579 19.6171 115.579 19.618 115.579 19.6188C115.579 19.6197 115.579 19.6206 115.579 19.6214C115.579 19.6223 115.579 19.6231 115.579 19.624H117.579C117.579 19.6231 117.579 19.6223 117.579 19.6214C117.579 19.6206 117.579 19.6197 117.579 19.6188C117.579 19.618 117.579 19.6171 117.579 19.6162C117.579 19.6154 117.579 19.6145 117.579 19.6136C117.579 19.6127 117.579 19.6119 117.579 19.611C117.579 19.6101 117.579 19.6092 117.579 19.6084C117.579 19.6075 117.579 19.6066 117.579 19.6057C117.579 19.6048 117.579 19.604 117.579 19.6031C117.579 19.6022 117.579 19.6013 117.579 19.6004C117.579 19.5995 117.579 19.5987 117.579 19.5978C117.579 19.5969 117.579 19.596 117.579 19.5951C117.579 19.5942 117.579 19.5933 117.579 19.5924C117.579 19.5915 117.579 19.5906 117.579 19.5897C117.579 19.5888 117.579 19.5879 117.579 19.587C117.579 19.5861 117.579 19.5852 117.579 19.5843C117.579 19.5834 117.579 19.5825 117.579 19.5816C117.579 19.5807 117.579 19.5798 117.579 19.5789C117.579 19.578 117.579 19.577 117.579 19.5761C117.579 19.5752 117.579 19.5743 117.579 19.5734C117.579 19.5725 117.579 19.5715 117.579 19.5706C117.579 19.5697 117.579 19.5688 117.579 19.5679C117.579 19.5669 117.579 19.566 117.579 19.5651C117.579 19.5642 117.579 19.5632 117.579 19.5623C117.579 19.5614 117.579 19.5604 117.579 19.5595C117.579 19.5586 117.579 19.5576 117.579 19.5567C117.579 19.5558 117.579 19.5548 117.579 19.5539C117.579 19.553 117.579 19.552 117.579 19.5511C117.579 19.5501 117.579 19.5492 117.579 19.5483C117.579 19.5473 117.579 19.5464 117.579 19.5454C117.579 19.5445 117.579 19.5435 117.579 19.5426C117.579 19.5416 117.579 19.5407 117.579 19.5397C117.579 19.5388 117.579 19.5378 117.579 19.5369C117.579 19.5359 117.579 19.5349 117.579 19.534C117.579 19.533 117.579 19.5321 117.579 19.5311C117.579 19.5301 117.579 19.5292 117.579 19.5282C117.579 19.5272 117.579 19.5263 117.579 19.5253C117.579 19.5243 117.579 19.5234 117.579 19.5224C117.579 19.5214 117.579 19.5205 117.579 19.5195C117.579 19.5185 117.579 19.5175 117.579 19.5166C117.579 19.5156 117.579 19.5146 117.579 19.5136C117.579 19.5126 117.579 19.5117 117.579 19.5107C117.579 19.5097 117.579 19.5087 117.579 19.5077C117.579 19.5067 117.579 19.5058 117.579 19.5048C117.579 19.5038 117.579 19.5028 117.579 19.5018C117.579 19.5008 117.579 19.4998 117.579 19.4988C117.579 19.4978 117.579 19.4968 117.579 19.4958C117.579 19.4948 117.579 19.4938 117.579 19.4928C117.579 19.4918 117.579 19.4908 117.579 19.4898C117.579 19.4888 117.579 19.4878 117.579 19.4868C117.579 19.4858 117.579 19.4848 117.579 19.4838C117.579 19.4828 117.579 19.4817 117.579 19.4807C117.579 19.4797 117.579 19.4787 117.579 19.4777C117.579 19.4767 117.579 19.4756 117.579 19.4746C117.579 19.4736 117.579 19.4726 117.579 19.4716C117.579 19.4705 117.579 19.4695 117.579 19.4685C117.579 19.4675 117.579 19.4664 117.579 19.4654C117.579 19.4644 117.579 19.4634 117.579 19.4623C117.579 19.4613 117.579 19.4603 117.579 19.4592C117.579 19.4582 117.579 19.4572 117.579 19.4561C117.579 19.4551 117.579 19.454 117.579 19.453C117.579 19.452 117.579 19.4509 117.579 19.4499C117.579 19.4488 117.579 19.4478 117.579 19.4467C117.579 19.4457 117.579 19.4446 117.579 19.4436C117.579 19.4425 117.579 19.4415 117.579 19.4404C117.579 19.4394 117.579 19.4383 117.579 19.4373C117.579 19.4362 117.579 19.4352 117.579 19.4341C117.579 19.433 117.579 19.432 117.579 19.4309C117.579 19.4299 117.579 19.4288 117.579 19.4277C117.579 19.4267 117.579 19.4256 117.579 19.4245C117.579 19.4235 117.579 19.4224 117.579 19.4213C117.579 19.4203 117.579 19.4192 117.579 19.4181C117.579 19.417 117.579 19.416 117.579 19.4149C117.579 19.4138 117.579 19.4127 117.579 19.4116C117.579 19.4106 117.579 19.4095 117.579 19.4084C117.579 19.4073 117.579 19.4062 117.579 19.4051C117.579 19.4041 117.579 19.403 117.579 19.4019C117.579 19.4008 117.579 19.3997 117.579 19.3986C117.579 19.3975 117.579 19.3964 117.579 19.3953C117.579 19.3942 117.579 19.3931 117.579 19.392C117.579 19.3909 117.579 19.3898 117.579 19.3887C117.579 19.3876 117.579 19.3865 117.579 19.3854C117.579 19.3843 117.579 19.3832 117.579 19.3821C117.579 19.381 117.579 19.3799 117.579 19.3788C117.579 19.3777 117.579 19.3766 117.579 19.3755C117.579 19.3743 117.579 19.3732 117.579 19.3721C117.579 19.371 117.579 19.3699 117.579 19.3688C117.579 19.3676 117.579 19.3665 117.579 19.3654C117.579 19.3643 117.579 19.3632 117.579 19.362C117.579 19.3609 117.579 19.3598 117.579 19.3587C117.579 19.3575 117.579 19.3564 117.579 19.3553C117.579 19.3541 117.579 19.353 117.579 19.3519C117.579 19.3507 117.579 19.3496 117.579 19.3485C117.579 19.3473 117.579 19.3462 117.579 19.345C117.579 19.3439 117.579 19.3428 117.579 19.3416C117.579 19.3405 117.579 19.3393 117.579 19.3382C117.579 19.337 117.579 19.3359 117.579 19.3347C117.579 19.3336 117.579 19.3324 117.579 19.3313C117.579 19.3301 117.579 19.329 117.579 19.3278C117.579 19.3267 117.579 19.3255 117.579 19.3243C117.579 19.3232 117.579 19.322 117.579 19.3209C117.579 19.3197 117.579 19.3185 117.579 19.3174C117.579 19.3162 117.579 19.315 117.579 19.3139C117.579 19.3127 117.579 19.3115 117.579 19.3104C117.579 19.3092 117.579 19.308 117.579 19.3069C117.579 19.3057 117.579 19.3045 117.579 19.3033C117.579 19.3022 117.579 19.301 117.579 19.2998C117.579 19.2986 117.579 19.2974 117.579 19.2963C117.579 19.2951 117.579 19.2939 117.579 19.2927C117.579 19.2915 117.579 19.2903 117.579 19.2891C117.579 19.288 117.579 19.2868 117.579 19.2856C117.579 19.2844 117.579 19.2832 117.579 19.282C117.579 19.2808 117.579 19.2796 117.579 19.2784C117.579 19.2772 117.579 19.276 117.579 19.2748C117.579 19.2736 117.579 19.2724 117.579 19.2712C117.579 19.27 117.579 19.2688 117.579 19.2676C117.579 19.2664 117.579 19.2652 117.579 19.264C117.579 19.2627 117.579 19.2615 117.579 19.2603C117.579 19.2591 117.579 19.2579 117.579 19.2567C117.579 19.2555 117.579 19.2542 117.579 19.253C117.579 19.2518 117.579 19.2506 117.579 19.2494C117.579 19.2481 117.579 19.2469 117.579 19.2457C117.579 19.2445 117.579 19.2432 117.579 19.242C117.579 19.2408 117.579 19.2396 117.579 19.2383C117.579 19.2371 117.579 19.2359 117.579 19.2346C117.579 19.2334 117.579 19.2322 117.579 19.2309C117.579 19.2297 117.579 19.2284 117.579 19.2272C117.579 19.226 117.579 19.2247 117.579 19.2235C117.579 19.2222 117.579 19.221 117.579 19.2197C117.579 19.2185 117.579 19.2173 117.579 19.216C117.579 19.2148 117.579 19.2135 117.579 19.2123C117.579 19.211 117.579 19.2097 117.579 19.2085C117.579 19.2072 117.579 19.206 117.579 19.2047C117.579 19.2035 117.579 19.2022 117.579 19.2009C117.579 19.1997 117.579 19.1984 117.579 19.1972C117.579 19.1959 117.579 19.1946 117.579 19.1934C117.579 19.1921 117.579 19.1908 117.579 19.1896C117.579 19.1883 117.579 19.187 117.579 19.1857C117.579 19.1845 117.579 19.1832 117.579 19.1819C117.579 19.1806 117.579 19.1794 117.579 19.1781C117.579 19.1768 117.579 19.1755 117.579 19.1742C117.579 19.173 117.579 19.1717 117.579 19.1704C117.579 19.1691 117.579 19.1678 117.579 19.1665C117.579 19.1652 117.579 19.1639 117.579 19.1627C117.579 19.1614 117.579 19.1601 117.579 19.1588C117.579 19.1575 117.579 19.1562 117.579 19.1549C117.579 19.1536 117.579 19.1523 117.579 19.151C117.579 19.1497 117.579 19.1484 117.579 19.1471C117.579 19.1458 117.579 19.1445 117.579 19.1432C117.579 19.1419 117.579 19.1406 117.579 19.1392C117.579 19.1379 117.579 19.1366 117.579 19.1353C117.579 19.134 117.579 19.1327 117.579 19.1314C117.579 19.1301 117.579 19.1287 117.579 19.1274C117.579 19.1261 117.579 19.1248 117.579 19.1235C117.579 19.1221 117.579 19.1208 117.579 19.1195C117.579 19.1182 117.579 19.1168 117.579 19.1155C117.579 19.1142 117.579 19.1129 117.579 19.1115C117.579 19.1102 117.579 19.1089 117.579 19.1075C117.579 19.1062 117.579 19.1049 117.579 19.1035C117.579 19.1022 117.579 19.1008 117.579 19.0995C117.579 19.0982 117.579 19.0968 117.579 19.0955C117.579 19.0941 117.579 19.0928 117.579 19.0915C117.579 19.0901 117.579 19.0888 117.579 19.0874C117.579 19.0861 117.579 19.0847 117.579 19.0834C117.579 19.082 117.579 19.0807 117.579 19.0793C117.579 19.0779 117.579 19.0766 117.579 19.0752C117.579 19.0739 117.579 19.0725 117.579 19.0711C117.579 19.0698 117.579 19.0684 117.579 19.0671C117.579 19.0657 117.579 19.0643 117.579 19.063C117.579 19.0616 117.579 19.0602 117.579 19.0589C117.579 19.0575 117.579 19.0561 117.579 19.0547C117.579 19.0534 117.579 19.052 117.579 19.0506C117.579 19.0492 117.579 19.0479 117.579 19.0465C117.579 19.0451 117.579 19.0437 117.579 19.0423C117.579 19.041 117.579 19.0396 117.579 19.0382C117.579 19.0368 117.579 19.0354 117.579 19.034C117.579 19.0327 117.579 19.0313 117.579 19.0299C117.579 19.0285 117.579 19.0271 117.579 19.0257C117.579 19.0243 117.579 19.0229 117.579 19.0215C117.579 19.0201 117.579 19.0187 117.579 19.0173C117.579 19.0159 117.579 19.0145 117.579 19.0131C117.579 19.0117 117.579 19.0103 117.579 19.0089C117.579 19.0075 117.579 19.0061 117.579 19.0047C117.579 19.0033 117.579 19.0018 117.579 19.0004C117.579 18.999 117.579 18.9976 117.579 18.9962C117.579 18.9948 117.579 18.9934 117.579 18.9919C117.579 18.9905 117.579 18.9891 117.579 18.9877C117.579 18.9863 117.579 18.9848 117.579 18.9834C117.579 18.982 117.579 18.9806 117.579 18.9791C117.579 18.9777 117.579 18.9763 117.579 18.9749C117.579 18.9734 117.579 18.972 117.579 18.9706C117.579 18.9691 117.579 18.9677 117.579 18.9663C117.579 18.9648 117.579 18.9634 117.579 18.9619C117.579 18.9605 117.579 18.9591 117.579 18.9576C117.579 18.9562 117.579 18.9547 117.579 18.9533C117.579 18.9518 117.579 18.9504 117.579 18.9489C117.579 18.9475 117.579 18.946 117.579 18.9446C117.579 18.9431 117.579 18.9417 117.579 18.9402C117.579 18.9388 117.579 18.9373 117.579 18.9359C117.579 18.9344 117.579 18.9329 117.579 18.9315C117.579 18.93 117.579 18.9286 117.579 18.9271C117.579 18.9256 117.579 18.9242 117.579 18.9227C117.579 18.9212 117.579 18.9198 117.579 18.9183C117.579 18.9168 117.579 18.9154 117.579 18.9139C117.579 18.9124 117.579 18.9109 117.579 18.9095C117.579 18.908 117.579 18.9065 117.579 18.905C117.579 18.9036 117.579 18.9021 117.579 18.9006C117.579 18.8991 117.579 18.8976 117.579 18.8961C117.579 18.8947 117.579 18.8932 117.579 18.8917C117.579 18.8902 117.579 18.8887 117.579 18.8872C117.579 18.8857 117.579 18.8842 117.579 18.8827C117.579 18.8812 117.579 18.8797 117.579 18.8783C117.579 18.8768 117.579 18.8753 117.579 18.8738C117.579 18.8723 117.579 18.8708 117.579 18.8693C117.579 18.8678 117.579 18.8662 117.579 18.8647C117.579 18.8632 117.579 18.8617 117.579 18.8602C117.579 18.8587 117.579 18.8572 117.579 18.8557C117.579 18.8542 117.579 18.8527 117.579 18.8511C117.579 18.8496 117.579 18.8481 117.579 18.8466C117.579 18.8451 117.579 18.8436 117.579 18.842C117.579 18.8405 117.579 18.839 117.579 18.8375C117.579 18.8359 117.579 18.8344 117.579 18.8329C117.579 18.8314 117.579 18.8298 117.579 18.8283C117.579 18.8268 117.579 18.8252 117.579 18.8237C117.579 18.8222 117.579 18.8206 117.579 18.8191C117.579 18.8176 117.579 18.816 117.579 18.8145C117.579 18.813 117.579 18.8114 117.579 18.8099C117.579 18.8083 117.579 18.8068 117.579 18.8052C117.579 18.8037 117.579 18.8022 117.579 18.8006C117.579 18.7991 117.579 18.7975 117.579 18.796C117.579 18.7944 117.579 18.7928 117.579 18.7913C117.579 18.7897 117.579 18.7882 117.579 18.7866C117.579 18.7851 117.579 18.7835 117.579 18.782C117.579 18.7804 117.579 18.7788 117.579 18.7773C117.579 18.7757 117.579 18.7741 117.579 18.7726C117.579 18.771 117.579 18.7694 117.579 18.7679C117.579 18.7663 117.579 18.7647 117.579 18.7632C117.579 18.7616 117.579 18.76 117.579 18.7584C117.579 18.7569 117.579 18.7553 117.579 18.7537C117.579 18.7521 117.579 18.7505 117.579 18.749C117.579 18.7474 117.579 18.7458 117.579 18.7442C117.579 18.7426 117.579 18.741 117.579 18.7395C117.579 18.7379 117.579 18.7363 117.579 18.7347C117.579 18.7331 117.579 18.7315 117.579 18.7299C117.579 18.7283 117.579 18.7267 117.579 18.7251C117.579 18.7235 117.579 18.7219 117.579 18.7203C117.579 18.7187 117.579 18.7171 117.579 18.7155C117.579 18.7139 117.579 18.7123 117.579 18.7107C117.579 18.7091 117.579 18.7075 117.579 18.7059C117.579 18.7043 117.579 18.7027 117.579 18.7011C117.579 18.6995 117.579 18.6978 117.579 18.6962C117.579 18.6946 117.579 18.693 117.579 18.6914C117.579 18.6898 117.579 18.6881 117.579 18.6865C117.579 18.6849 117.579 18.6833 117.579 18.6817C117.579 18.68 117.579 18.6784 117.579 18.6768C117.579 18.6752 117.579 18.6735 117.579 18.6719C117.579 18.6703 117.579 18.6686 117.579 18.667C117.579 18.6654 117.579 18.6637 117.579 18.6621C117.579 18.6605 117.579 18.6588 117.579 18.6572C117.579 18.6555 117.579 18.6539 117.579 18.6523C117.579 18.6506 117.579 18.649 117.579 18.6473C117.579 18.6457 117.579 18.644 117.579 18.6424C117.579 18.6407 117.579 18.6391 117.579 18.6374C117.579 18.6358 117.579 18.6341 117.579 18.6325C117.579 18.6308 117.579 18.6292 117.579 18.6275C117.579 18.6259 117.579 18.6242 117.579 18.6225C117.579 18.6209 117.579 18.6192 117.579 18.6176C117.579 18.6159 117.579 18.6142 117.579 18.6126C117.579 18.6109 117.579 18.6092 117.579 18.6076C117.579 18.6059 117.579 18.6042 117.579 18.6026C117.579 18.6009 117.579 18.5992 117.579 18.5975C117.579 18.5959 117.579 18.5942 117.579 18.5925C117.579 18.5908 117.579 18.5891 117.579 18.5875C117.579 18.5858 117.579 18.5841 117.579 18.5824C117.579 18.5807 117.579 18.579 117.579 18.5774C117.579 18.5757 117.579 18.574 117.579 18.5723C117.579 18.5706 117.579 18.5689 117.579 18.5672C117.579 18.5655 117.579 18.5638 117.579 18.5621C117.579 18.5604 117.579 18.5587 117.579 18.557C117.579 18.5553 117.579 18.5536 117.579 18.5519C117.579 18.5502 117.579 18.5485 117.579 18.5468C117.579 18.5451 117.579 18.5434 117.579 18.5417C117.579 18.54 117.579 18.5383 117.579 18.5366C117.579 18.5349 117.579 18.5332 117.579 18.5314C117.579 18.5297 117.579 18.528 117.579 18.5263C117.579 18.5246 117.579 18.5229 117.579 18.5211C117.579 18.5194 117.579 18.5177 117.579 18.516C117.579 18.5142 117.579 18.5125 117.579 18.5108C117.579 18.5091 117.579 18.5073 117.579 18.5056C117.579 18.5039 117.579 18.5021 117.579 18.5004C117.579 18.4987 117.579 18.4969 117.579 18.4952C117.579 18.4935 117.579 18.4917 117.579 18.49C117.579 18.4883 117.579 18.4865 117.579 18.4848C117.579 18.483 117.579 18.4813 117.579 18.4796C117.579 18.4778 117.579 18.4761 117.579 18.4743C117.579 18.4726 117.579 18.4708 117.579 18.4691C117.579 18.4673 117.579 18.4656 117.579 18.4638C117.579 18.4621 117.579 18.4603 117.579 18.4585C117.579 18.4568 117.579 18.455 117.579 18.4533C117.579 18.4515 117.579 18.4497 117.579 18.448C117.579 18.4462 117.579 18.4445 117.579 18.4427C117.579 18.4409 117.579 18.4392 117.579 18.4374C117.579 18.4356 117.579 18.4339 117.579 18.4321C117.579 18.4303 117.579 18.4285 117.579 18.4268C117.579 18.425 117.579 18.4232 117.579 18.4214C117.579 18.4197 117.579 18.4179 117.579 18.4161C117.579 18.4143 117.579 18.4125 117.579 18.4107C117.579 18.409 117.579 18.4072 117.579 18.4054C117.579 18.4036 117.579 18.4018 117.579 18.4C117.579 18.3982 117.579 18.3964 117.579 18.3947C117.579 18.3929 117.579 18.3911 117.579 18.3893C117.579 18.3875 117.579 18.3857 117.579 18.3839C117.579 18.3821 117.579 18.3803 117.579 18.3785C117.579 18.3767 117.579 18.3749 117.579 18.3731C117.579 18.3713 117.579 18.3695 117.579 18.3676C117.579 18.3658 117.579 18.364 117.579 18.3622C117.579 18.3604 117.579 18.3586 117.579 18.3568C117.579 18.355 117.579 18.3531 117.579 18.3513C117.579 18.3495 117.579 18.3477 117.579 18.3459C117.579 18.3441 117.579 18.3422 117.579 18.3404C117.579 18.3386 117.579 18.3368 117.579 18.3349C117.579 18.3331 117.579 18.3313 117.579 18.3295C117.579 18.3276 117.579 18.3258 117.579 18.324C117.579 18.3221 117.579 18.3203 117.579 18.3185C117.579 18.3166 117.579 18.3148 117.579 18.313C117.579 18.3111 117.579 18.3093 117.579 18.3074C117.579 18.3056 117.579 18.3037 117.579 18.3019C117.579 18.3001 117.579 18.2982 117.579 18.2964C117.579 18.2945 117.579 18.2927 117.579 18.2908C117.579 18.289 117.579 18.2871 117.579 18.2853C117.579 18.2834 117.579 18.2816 117.579 18.2797C117.579 18.2778 117.579 18.276 117.579 18.2741C117.579 18.2723 117.579 18.2704 117.579 18.2685C117.579 18.2667 117.579 18.2648 117.579 18.263C117.579 18.2611 117.579 18.2592 117.579 18.2573C117.579 18.2555 117.579 18.2536 117.579 18.2517C117.579 18.2499 117.579 18.248 117.579 18.2461C117.579 18.2442 117.579 18.2424 117.579 18.2405C117.579 18.2386 117.579 18.2367 117.579 18.2349C117.579 18.233 117.579 18.2311 117.579 18.2292C117.579 18.2273 117.579 18.2254 117.579 18.2236C117.579 18.2217 117.579 18.2198 117.579 18.2179C117.579 18.216 117.579 18.2141 117.579 18.2122C117.579 18.2103 117.579 18.2084 117.579 18.2065C117.579 18.2046 117.579 18.2027 117.579 18.2008C117.579 18.1989 117.579 18.197 117.579 18.1951C117.579 18.1932 117.579 18.1913 117.579 18.1894C117.579 18.1875 117.579 18.1856 117.579 18.1837C117.579 18.1818 117.579 18.1799 117.579 18.178C117.579 18.1761 117.579 18.1742 117.579 18.1722C117.579 18.1703 117.579 18.1684 117.579 18.1665C117.579 18.1646 117.579 18.1627 117.579 18.1607C117.579 18.1588 117.579 18.1569 117.579 18.155C117.579 18.1531 117.579 18.1511 117.579 18.1492C117.579 18.1473 117.579 18.1454 117.579 18.1434C117.579 18.1415 117.579 18.1396 117.579 18.1376C117.579 18.1357 117.579 18.1338 117.579 18.1318C117.579 18.1299 117.579 18.128 117.579 18.126C117.579 18.1241 117.579 18.1222 117.579 18.1202C117.579 18.1183 117.579 18.1163 117.579 18.1144C117.579 18.1124 117.579 18.1105 117.579 18.1085C117.579 18.1066 117.579 18.1046 117.579 18.1027C117.579 18.1007 117.579 18.0988 117.579 18.0968C117.579 18.0949 117.579 18.0929 117.579 18.091C117.579 18.089 117.579 18.0871 117.579 18.0851C117.579 18.0831 117.579 18.0812 117.579 18.0792C117.579 18.0773 117.579 18.0753 117.579 18.0733C117.579 18.0714 117.579 18.0694 117.579 18.0674C117.579 18.0655 117.579 18.0635 117.579 18.0615C117.579 18.0596 117.579 18.0576 117.579 18.0556C117.579 18.0536 117.579 18.0517 117.579 18.0497C117.579 18.0477 117.579 18.0457 117.579 18.0437C117.579 18.0418 117.579 18.0398 117.579 18.0378C117.579 18.0358 117.579 18.0338 117.579 18.0318C117.579 18.0299 117.579 18.0279 117.579 18.0259C117.579 18.0239 117.579 18.0219 117.579 18.0199C117.579 18.0179 117.579 18.0159 117.579 18.0139C117.579 18.0119 117.579 18.0099 117.579 18.0079C117.579 18.0059 117.579 18.0039 117.579 18.0019C117.579 17.9999 117.579 17.9979 117.579 17.9959C117.579 17.9939 117.579 17.9919 117.579 17.9899C117.579 17.9879 117.579 17.9859 117.579 17.9839C117.579 17.9819 117.579 17.9799 117.579 17.9778C117.579 17.9758 117.579 17.9738 117.579 17.9718C117.579 17.9698 117.579 17.9678 117.579 17.9657C117.579 17.9637 117.579 17.9617 117.579 17.9597C117.579 17.9577 117.579 17.9556 117.579 17.9536C117.579 17.9516 117.579 17.9496 117.579 17.9475C117.579 17.9455 117.579 17.9435 117.579 17.9414C117.579 17.9394 117.579 17.9374 117.579 17.9353C117.579 17.9333 117.579 17.9313 117.579 17.9292C117.579 17.9272 117.579 17.9252 117.579 17.9231C117.579 17.9211 117.579 17.919 117.579 17.917C117.579 17.9149 117.579 17.9129 117.579 17.9109C117.579 17.9088 117.579 17.9068 117.579 17.9047C117.579 17.9027 117.579 17.9006 117.579 17.8986C117.579 17.8965 117.579 17.8944 117.579 17.8924C117.579 17.8903 117.579 17.8883 117.579 17.8862C117.579 17.8842 117.579 17.8821 117.579 17.88C117.579 17.878 117.579 17.8759 117.579 17.8738C117.579 17.8718 117.579 17.8697 117.579 17.8677C117.579 17.8656 117.579 17.8635 117.579 17.8614C117.579 17.8594 117.579 17.8573 117.579 17.8552C117.579 17.8532 117.579 17.8511 117.579 17.849C117.579 17.8469 117.579 17.8448 117.579 17.8428C117.579 17.8407 117.579 17.8386 117.579 17.8365C117.579 17.8344 117.579 17.8324 117.579 17.8303C117.579 17.8282 117.579 17.8261 117.579 17.824C117.579 17.8219 117.579 17.8198 117.579 17.8177C117.579 17.8156 117.579 17.8135 117.579 17.8115C117.579 17.8094 117.579 17.8073 117.579 17.8052C117.579 17.8031 117.579 17.801 117.579 17.7989C117.579 17.7968 117.579 17.7947 117.579 17.7926C117.579 17.7905 117.579 17.7883 117.579 17.7862C117.579 17.7841 117.579 17.782 117.579 17.7799C117.579 17.7778 117.579 17.7757 117.579 17.7736C117.579 17.7715 117.579 17.7694 117.579 17.7672C117.579 17.7651 117.579 17.763 117.579 17.7609C117.579 17.7588 117.579 17.7566 117.579 17.7545C117.579 17.7524 117.579 17.7503 117.579 17.7481C117.579 17.746 117.579 17.7439 117.579 17.7418C117.579 17.7396 117.579 17.7375 117.579 17.7354C117.579 17.7332 117.579 17.7311 117.579 17.729C117.579 17.7268 117.579 17.7247 117.579 17.7226C117.579 17.7204 117.579 17.7183 117.579 17.7162C117.579 17.714 117.579 17.7119 117.579 17.7097C117.579 17.7076 117.579 17.7054 117.579 17.7033C117.579 17.7011 117.579 17.699 117.579 17.6968C117.579 17.6947 117.579 17.6925 117.579 17.6904C117.579 17.6882 117.579 17.6861 117.579 17.6839C117.579 17.6818 117.579 17.6796 117.579 17.6775C117.579 17.6753 117.579 17.6731 117.579 17.671C117.579 17.6688 117.579 17.6667 117.579 17.6645C117.579 17.6623 117.579 17.6602 117.579 17.658C117.579 17.6558 117.579 17.6537 117.579 17.6515C117.579 17.6493 117.579 17.6471 117.579 17.645C117.579 17.6428 117.579 17.6406 117.579 17.6384C117.579 17.6363 117.579 17.6341 117.579 17.6319C117.579 17.6297 117.579 17.6276 117.579 17.6254C117.579 17.6232 117.579 17.621 117.579 17.6188C117.579 17.6166 117.579 17.6144 117.579 17.6123C117.579 17.6101 117.579 17.6079 117.579 17.6057C117.579 17.6035 117.579 17.6013 117.579 17.5991C117.579 17.5969 117.579 17.5947 117.579 17.5925C117.579 17.5903 117.579 17.5881 117.579 17.5859C117.579 17.5837 117.579 17.5815 117.579 17.5793C117.579 17.5771 117.579 17.5749 117.579 17.5727C117.579 17.5705 117.579 17.5683 117.579 17.5661C117.579 17.5639 117.579 17.5616 117.579 17.5594C117.579 17.5572 117.579 17.555 117.579 17.5528C117.579 17.5506 117.579 17.5484 117.579 17.5461C117.579 17.5439 117.579 17.5417 117.579 17.5395C117.579 17.5373 117.579 17.535 117.579 17.5328C117.579 17.5306 117.579 17.5284 117.579 17.5261C117.579 17.5239 117.579 17.5217 117.579 17.5194C117.579 17.5172 117.579 17.515 117.579 17.5127C117.579 17.5105 117.579 17.5083 117.579 17.506C117.579 17.5038 117.579 17.5016 117.579 17.4993C117.579 17.4971 117.579 17.4948 117.579 17.4926C117.579 17.4904 117.579 17.4881 117.579 17.4859C117.579 17.4836 117.579 17.4814 117.579 17.4791C117.579 17.4769 117.579 17.4746 117.579 17.4724C117.579 17.4701 117.579 17.4679 117.579 17.4656C117.579 17.4634 117.579 17.4611 117.579 17.4588C117.579 17.4566 117.579 17.4543 117.579 17.4521C117.579 17.4498 117.579 17.4475 117.579 17.4453C117.579 17.443 117.579 17.4407 117.579 17.4385C117.579 17.4362 117.579 17.4339 117.579 17.4317C117.579 17.4294 117.579 17.4271 117.579 17.4249C117.579 17.4226 117.579 17.4203 117.579 17.418C117.579 17.4157 117.579 17.4135 117.579 17.4112C117.579 17.4089 117.579 17.4066 117.579 17.4044C117.579 17.4021 117.579 17.3998 117.579 17.3975C117.579 17.3952 117.579 17.3929 117.579 17.3906C117.579 17.3883 117.579 17.3861 117.579 17.3838C117.579 17.3815 117.579 17.3792 117.579 17.3769C117.579 17.3746 117.579 17.3723 117.579 17.37C117.579 17.3677 117.579 17.3654 117.579 17.3631C117.579 17.3608 117.579 17.3585 117.579 17.3562C117.579 17.3539 117.579 17.3516 117.579 17.3493C117.579 17.347 117.579 17.3447 117.579 17.3424C117.579 17.34 117.579 17.3377 117.579 17.3354C117.579 17.3331 117.579 17.3308 117.579 17.3285C117.579 17.3262 117.579 17.3239 117.579 17.3215C117.579 17.3192 117.579 17.3169 117.579 17.3146C117.579 17.3122 117.579 17.3099 117.579 17.3076C117.579 17.3053 117.579 17.3029 117.579 17.3006C117.579 17.2983 117.579 17.296 117.579 17.2936C117.579 17.2913 117.579 17.289 117.579 17.2866C117.579 17.2843 117.579 17.282 117.579 17.2796C117.579 17.2773 117.579 17.275 117.579 17.2726C117.579 17.2703 117.579 17.2679 117.579 17.2656C117.579 17.2633 117.579 17.2609 117.579 17.2586C117.579 17.2562 117.579 17.2539 117.579 17.2515C117.579 17.2492 117.579 17.2468 117.579 17.2445C117.579 17.2421 117.579 17.2398 117.579 17.2374C117.579 17.2351 117.579 17.2327 117.579 17.2303C117.579 17.228 117.579 17.2256 117.579 17.2233C117.579 17.2209 117.579 17.2185 117.579 17.2162C117.579 17.2138 117.579 17.2114 117.579 17.2091C117.579 17.2067 117.579 17.2043 117.579 17.202C117.579 17.1996 117.579 17.1972 117.579 17.1949C117.579 17.1925 117.579 17.1901 117.579 17.1877C117.579 17.1854 117.579 17.183 117.579 17.1806C117.579 17.1782 117.579 17.1758 117.579 17.1735C117.579 17.1711 117.579 17.1687 117.579 17.1663C117.579 17.1639 117.579 17.1615 117.579 17.1591C117.579 17.1568 117.579 17.1544 117.579 17.152C117.579 17.1496 117.579 17.1472 117.579 17.1448C117.579 17.1424 117.579 17.14 117.579 17.1376C117.579 17.1352 117.579 17.1328 117.579 17.1304C117.579 17.128 117.579 17.1256 117.579 17.1232C117.579 17.1208 117.579 17.1184 117.579 17.116H115.579ZM115.581 19.6952C115.61 20.1 115.654 20.7846 115.712 21.7525L117.709 21.6315C117.65 20.6634 117.606 19.9693 117.576 19.5528L115.581 19.6952ZM115.715 21.7853C115.804 22.734 115.929 23.5157 116.121 24.0523L118.004 23.3797C117.903 23.095 117.793 22.5273 117.706 21.5987L115.715 21.7853ZM116.143 24.1099C116.323 24.5299 116.561 25.0652 116.856 25.7138L118.677 24.8862C118.385 24.2441 118.154 23.7234 117.982 23.3221L116.143 24.1099ZM116.872 25.7472C117.254 26.5117 117.771 27.1455 118.464 27.5356L119.445 25.7924C119.2 25.6545 118.924 25.379 118.661 24.8528L116.872 25.7472ZM118.419 27.5085C119.793 28.38 121.346 28.808 123.047 28.808V26.808C121.697 26.808 120.521 26.4733 119.49 25.8195L118.419 27.5085ZM123.047 28.808C124.466 28.808 125.741 28.5053 126.829 27.8509C127.92 27.1945 128.758 26.2226 129.358 24.9895L127.559 24.1145C127.103 25.0521 126.511 25.7082 125.798 26.1371C125.082 26.5681 124.179 26.808 123.047 26.808V28.808ZM129.459 24.552V22.44H127.459V24.552H129.459ZM128.459 21.44H124.675V23.44H128.459V21.44ZM125.675 22.44V17.336H123.675V22.44H125.675ZM124.675 18.336H133.695V16.336H124.675V18.336ZM132.695 17.336V26.796H134.695V17.336H132.695ZM132.774 26.4051C131.949 28.3487 130.661 29.7875 128.899 30.7606L129.866 32.5114C132.035 31.3138 133.622 29.526 134.615 27.1869L132.774 26.4051ZM128.899 30.7606C127.098 31.7555 125.038 32.264 122.695 32.264V34.264C125.338 34.264 127.737 33.6872 129.866 32.5114L128.899 30.7606ZM122.695 32.264C118.441 32.264 115.573 31.0853 113.836 28.9388L112.281 30.1972C114.533 32.9787 118.089 34.264 122.695 34.264V32.264ZM113.844 28.949C112.078 26.7093 111.111 23.2043 111.111 18.26H109.111C109.111 23.4063 110.108 27.44 112.273 30.187L113.844 28.949ZM160.038 29.7L159.272 29.057L159.268 29.0626L160.038 29.7ZM141.03 29.7L140.255 30.3317L140.26 30.3374L141.03 29.7ZM141.074 4.972L140.308 4.32901L140.304 4.33463L141.074 4.972ZM155.858 9.768L156.78 9.37994L156.779 9.37745L155.858 9.768ZM145.254 9.768L146.174 10.1599L146.175 10.1586L145.254 9.768ZM145.826 25.784L146.631 25.1908L146.619 25.1748L146.607 25.1593L145.826 25.784ZM147.63 27.236L147.17 28.1238L147.189 28.1338L147.209 28.143L147.63 27.236ZM153.438 27.236L153.004 26.335L153.438 27.236ZM155.286 25.828L154.501 25.2084L155.286 25.828ZM156.298 23.628L155.337 23.3533L155.333 23.3657L155.33 23.3781L156.298 23.628ZM162.03 15.884V18.26H164.03V15.884H162.03ZM162.03 18.26C162.03 23.4248 161.042 26.9495 159.272 29.057L160.804 30.343C163.024 27.6985 164.03 23.5966 164.03 18.26H162.03ZM159.268 29.0626C157.562 31.1249 154.736 32.264 150.534 32.264V34.264C155.073 34.264 158.584 33.0271 160.809 30.3374L159.268 29.0626ZM150.534 32.264C146.332 32.264 143.507 31.1249 141.801 29.0626L140.26 30.3374C142.484 33.0271 145.995 34.264 150.534 34.264V32.264ZM141.805 29.0683C140.089 26.9617 139.126 23.3904 139.126 18.128H137.126C137.126 23.5429 138.099 27.6863 140.255 30.3317L141.805 29.0683ZM139.126 18.128V15.84H137.126V18.128H139.126ZM139.126 15.84C139.126 11.0764 140.092 7.72796 141.845 5.60937L140.304 4.33463C138.125 6.96804 137.126 10.865 137.126 15.84H139.126ZM141.84 5.61497C143.58 3.54233 146.385 2.408 150.49 2.408V0.407997C146.03 0.407997 142.558 1.64966 140.308 4.32903L141.84 5.61497ZM150.49 2.408C154.622 2.408 157.459 3.55578 159.229 5.65985L160.759 4.37215C158.482 1.66555 154.982 0.407997 150.49 0.407997V2.408ZM159.229 5.65985C161.038 7.80991 162.03 11.1583 162.03 15.884H164.03C164.03 10.9297 162.998 7.03275 160.759 4.37215L159.229 5.65985ZM157.914 18.128V16.5H155.914V18.128H157.914ZM157.914 16.5C157.914 13.6165 157.556 11.2236 156.78 9.37994L154.937 10.1561C155.568 11.6564 155.914 13.7515 155.914 16.5H157.914ZM156.779 9.37745C156.285 8.21339 155.49 7.31123 154.404 6.71378C153.334 6.12545 152.04 5.864 150.578 5.864V7.864C151.815 7.864 152.75 8.08655 153.44 8.46622C154.114 8.83677 154.61 9.38661 154.938 10.1586L156.779 9.37745ZM150.578 5.864C149.103 5.864 147.799 6.12486 146.722 6.7121C145.629 7.3087 144.828 8.21087 144.334 9.37745L146.175 10.1586C146.501 9.38913 146.999 8.8393 147.68 8.46789C148.378 8.08713 149.325 7.864 150.578 7.864V5.864ZM144.334 9.37614C143.582 11.1409 143.242 13.5413 143.242 16.5H145.242C145.242 13.6507 145.577 11.5631 146.174 10.1599L144.334 9.37614ZM143.242 16.5V18.128H145.242V16.5H143.242ZM143.242 18.128C143.242 20.0604 143.376 21.7175 143.659 23.0826C143.939 24.4371 144.38 25.5768 145.045 26.4087L146.607 25.1593C146.217 24.6712 145.865 23.8749 145.617 22.6774C145.372 21.4905 145.242 19.9796 145.242 18.128H143.242ZM145.021 26.3772C145.545 27.0881 146.28 27.6623 147.17 28.1238L148.09 26.3482C147.397 25.9884 146.929 25.5945 146.631 25.1908L145.021 26.3772ZM147.209 28.143C148.189 28.5981 149.307 28.808 150.534 28.808V26.808C149.532 26.808 148.714 26.6366 148.051 26.329L147.209 28.143ZM150.534 28.808C151.785 28.808 152.91 28.6001 153.872 28.137L153.004 26.335C152.382 26.6346 151.571 26.808 150.534 26.808V28.808ZM153.872 28.137C154.769 27.7051 155.517 27.1492 156.071 26.4476L154.501 25.2084C154.175 25.6215 153.691 26.0042 153.004 26.335L153.872 28.137ZM156.071 26.4476C156.62 25.752 157.008 24.8806 157.266 23.8779L155.33 23.3781C155.119 24.1941 154.832 24.7893 154.501 25.2084L156.071 26.4476ZM157.26 23.9027C157.705 22.3438 157.914 20.4094 157.914 18.128H155.914C155.914 20.3053 155.713 22.0375 155.337 23.3533L157.26 23.9027Z" fill="#3E3C80" mask="url(#path-1-outside-1_343_4069)"/>
</svg>
